<svg width="75" height="44" viewBox="0 0 75 44" fill="none" xmlns="http://www.w3.org/2000/svg">
<rect x="1.23087" y="1.47473" width="71.2937" height="40.9134" rx="4.5" stroke="#323089"/>
<rect x="4.74582" y="4.62976" width="65.188" height="35.7981" rx="4.5" stroke="#323089"/>
<rect x="2.23087" y="2.47473" width="71.2937" height="40.9134" rx="4.5" stroke="#323089"/>
<path d="M16.8477 34.457C15.1077 34.457 13.7877 34.007 12.8877 33.107C12.0077 32.207 11.6477 30.857 11.8077 29.057L12.1377 25.427C12.1977 24.807 12.1177 24.367 11.8977 24.107C11.6977 23.847 11.3177 23.717 10.7577 23.717H9.91769V20.417H10.7577C11.3177 20.417 11.6977 20.287 11.8977 20.027C12.1177 19.767 12.1977 19.327 12.1377 18.707L11.8077 15.197C11.6277 13.417 11.9877 12.077 12.8877 11.177C13.7877 10.257 15.1077 9.797 16.8477 9.797H18.6777V13.157H17.5377C16.6977 13.157 16.1377 13.327 15.8577 13.667C15.5777 14.007 15.4777 14.527 15.5577 15.227L15.7977 18.197C15.8777 19.037 15.8377 19.747 15.6777 20.327C15.5377 20.907 15.2077 21.387 14.6877 21.767C14.1877 22.147 13.4577 22.457 12.4977 22.697V21.557C13.4577 21.757 14.1877 22.047 14.6877 22.427C15.2077 22.787 15.5377 23.257 15.6777 23.837C15.8377 24.417 15.8777 25.127 15.7977 25.967L15.5577 29.027C15.4977 29.707 15.5977 30.227 15.8577 30.587C16.1377 30.927 16.6977 31.097 17.5377 31.097H18.6777V34.457H16.8477ZM28.4516 31.907C26.8716 31.907 25.4616 31.587 24.2216 30.947C23.0016 30.287 22.0416 29.377 21.3416 28.217C20.6416 27.057 20.2916 25.747 20.2916 24.287C20.2916 22.827 20.6316 21.527 21.3116 20.387C22.0116 19.227 22.9516 18.317 24.1316 17.657C25.3116 16.997 26.6416 16.667 28.1216 16.667C29.5616 16.667 30.8316 16.977 31.9316 17.597C33.0316 18.217 33.8916 19.077 34.5116 20.177C35.1516 21.277 35.4716 22.537 35.4716 23.957C35.4716 24.217 35.4516 24.497 35.4116 24.797C35.3916 25.077 35.3416 25.407 35.2616 25.787L22.6916 25.817V22.667L33.3116 22.637L31.3316 23.957C31.3116 23.117 31.1816 22.427 30.9416 21.887C30.7016 21.327 30.3416 20.907 29.8616 20.627C29.4016 20.327 28.8316 20.177 28.1516 20.177C27.4316 20.177 26.8016 20.347 26.2616 20.687C25.7416 21.007 25.3316 21.467 25.0316 22.067C24.7516 22.667 24.6116 23.397 24.6116 24.257C24.6116 25.117 24.7616 25.857 25.0616 26.477C25.3816 27.077 25.8216 27.547 26.3816 27.887C26.9616 28.207 27.6416 28.367 28.4216 28.367C29.1416 28.367 29.7916 28.247 30.3716 28.007C30.9516 27.747 31.4616 27.367 31.9016 26.867L34.4216 29.387C33.7016 30.227 32.8316 30.857 31.8116 31.277C30.7916 31.697 29.6716 31.907 28.4516 31.907ZM46.0871 31.877C45.1071 31.877 44.2071 31.687 43.3871 31.307C42.5671 30.927 41.8971 30.407 41.3771 29.747C40.8571 29.067 40.5571 28.297 40.4771 27.437V21.287C40.5571 20.427 40.8571 19.647 41.3771 18.947C41.8971 18.247 42.5671 17.697 43.3871 17.297C44.2071 16.897 45.1071 16.697 46.0871 16.697C47.4671 16.697 48.6871 17.027 49.7471 17.687C50.8271 18.347 51.6671 19.247 52.2671 20.387C52.8871 21.527 53.1971 22.827 53.1971 24.287C53.1971 25.747 52.8871 27.047 52.2671 28.187C51.6671 29.327 50.8271 30.227 49.7471 30.887C48.6871 31.547 47.4671 31.877 46.0871 31.877ZM45.2471 27.737C45.9071 27.737 46.4771 27.587 46.9571 27.287C47.4571 26.987 47.8471 26.577 48.1271 26.057C48.4071 25.537 48.5471 24.947 48.5471 24.287C48.5471 23.607 48.4071 23.007 48.1271 22.487C47.8471 21.967 47.4571 21.567 46.9571 21.287C46.4771 20.987 45.9171 20.837 45.2771 20.837C44.6371 20.837 44.0671 20.987 43.5671 21.287C43.0871 21.567 42.7071 21.967 42.4271 22.487C42.1471 23.007 42.0071 23.607 42.0071 24.287C42.0071 24.947 42.1371 25.537 42.3971 26.057C42.6771 26.577 43.0671 26.987 43.5671 27.287C44.0671 27.587 44.6271 27.737 45.2471 27.737ZM37.6871 37.727V16.997H42.2771V20.747L41.5271 24.287L42.2171 27.827V37.727H37.6871ZM56.5489 34.457H54.7189V31.097H55.8589C56.6989 31.097 57.2489 30.927 57.5089 30.587C57.7889 30.227 57.8989 29.707 57.8389 29.027L57.5989 25.967C57.5189 25.127 57.5489 24.417 57.6889 23.837C57.8489 23.257 58.1789 22.787 58.6789 22.427C59.1989 22.047 59.9389 21.757 60.8989 21.557V22.697C59.9389 22.457 59.1989 22.147 58.6789 21.767C58.1789 21.387 57.8489 20.907 57.6889 20.327C57.5489 19.747 57.5189 19.037 57.5989 18.197L57.8389 15.227C57.9189 14.527 57.8189 14.007 57.5389 13.667C57.2589 13.327 56.6989 13.157 55.8589 13.157H54.7189V9.797H56.5489C58.2889 9.797 59.6089 10.257 60.5089 11.177C61.4089 12.077 61.7689 13.417 61.5889 15.197L61.2589 18.707C61.1989 19.327 61.2689 19.767 61.4689 20.027C61.6889 20.287 62.0789 20.417 62.6389 20.417H63.4789V23.717H62.6389C62.0789 23.717 61.6889 23.847 61.4689 24.107C61.2689 24.367 61.1989 24.807 61.2589 25.427L61.5889 29.057C61.7689 30.857 61.4089 32.207 60.5089 33.107C59.6089 34.007 58.2889 34.457 56.5489 34.457Z" fill="#323089"/>
</svg>
