<svg width="281" height="76" viewBox="0 0 281 76" fill="none" xmlns="http://www.w3.org/2000/svg">
<path d="M0 -2H281C281 41.0782 246.078 76 203 76H0V-2Z" fill="#1B2340"/>
<g clip-path="url(#clip0_1211_4)">
<path d="M171.024 16.4747H108.73C106.245 16.4747 104.23 18.4894 104.23 20.9747V52.8881C104.23 55.3734 106.245 57.3881 108.73 57.3881H171.024C173.509 57.3881 175.524 55.3734 175.524 52.8881V20.9747C175.524 18.4894 173.509 16.4747 171.024 16.4747Z" stroke="white"/>
<path d="M168.434 19.6298H112.246C109.761 19.6298 107.746 21.6445 107.746 24.1298V50.9279C107.746 53.4131 109.761 55.4279 112.246 55.4279H168.434C170.919 55.4279 172.934 53.4131 172.934 50.9279V24.1298C172.934 21.6445 170.919 19.6298 168.434 19.6298Z" stroke="white"/>
<path d="M172.024 17.4747H109.73C107.245 17.4747 105.23 19.4894 105.23 21.9747V53.8881C105.23 56.3734 107.245 58.3881 109.73 58.3881H172.024C174.509 58.3881 176.524 56.3734 176.524 53.8881V21.9747C176.524 19.4894 174.509 17.4747 172.024 17.4747Z" stroke="white"/>
<path d="M119.848 49.457C118.108 49.457 116.788 49.007 115.888 48.107C115.008 47.207 114.648 45.857 114.808 44.057L115.138 40.427C115.198 39.807 115.118 39.367 114.898 39.107C114.698 38.847 114.318 38.717 113.758 38.717H112.918V35.417H113.758C114.318 35.417 114.698 35.287 114.898 35.027C115.118 34.767 115.198 34.327 115.138 33.707L114.808 30.197C114.628 28.417 114.988 27.077 115.888 26.177C116.788 25.257 118.108 24.797 119.848 24.797H121.678V28.157H120.538C119.698 28.157 119.138 28.327 118.858 28.667C118.578 29.007 118.478 29.527 118.558 30.227L118.798 33.197C118.878 34.037 118.838 34.747 118.678 35.327C118.538 35.907 118.208 36.387 117.688 36.767C117.188 37.147 116.458 37.457 115.498 37.697V36.557C116.458 36.757 117.188 37.047 117.688 37.427C118.208 37.787 118.538 38.257 118.678 38.837C118.838 39.417 118.878 40.127 118.798 40.967L118.558 44.027C118.498 44.707 118.598 45.227 118.858 45.587C119.138 45.927 119.698 46.097 120.538 46.097H121.678V49.457H119.848ZM131.452 46.907C129.872 46.907 128.462 46.587 127.222 45.947C126.002 45.287 125.042 44.377 124.342 43.217C123.642 42.057 123.292 40.747 123.292 39.287C123.292 37.827 123.632 36.527 124.312 35.387C125.012 34.227 125.952 33.317 127.132 32.657C128.312 31.997 129.642 31.667 131.122 31.667C132.562 31.667 133.832 31.977 134.932 32.597C136.032 33.217 136.892 34.077 137.512 35.177C138.152 36.277 138.472 37.537 138.472 38.957C138.472 39.217 138.452 39.497 138.412 39.797C138.392 40.077 138.342 40.407 138.262 40.787L125.692 40.817V37.667L136.312 37.637L134.332 38.957C134.312 38.117 134.182 37.427 133.942 36.887C133.702 36.327 133.342 35.907 132.862 35.627C132.402 35.327 131.832 35.177 131.152 35.177C130.432 35.177 129.802 35.347 129.262 35.687C128.742 36.007 128.332 36.467 128.032 37.067C127.752 37.667 127.612 38.397 127.612 39.257C127.612 40.117 127.762 40.857 128.062 41.477C128.382 42.077 128.822 42.547 129.382 42.887C129.962 43.207 130.642 43.367 131.422 43.367C132.142 43.367 132.792 43.247 133.372 43.007C133.952 42.747 134.462 42.367 134.902 41.867L137.422 44.387C136.702 45.227 135.832 45.857 134.812 46.277C133.792 46.697 132.672 46.907 131.452 46.907ZM149.087 46.877C148.107 46.877 147.207 46.687 146.387 46.307C145.567 45.927 144.897 45.407 144.377 44.747C143.857 44.067 143.557 43.297 143.477 42.437V36.287C143.557 35.427 143.857 34.647 144.377 33.947C144.897 33.247 145.567 32.697 146.387 32.297C147.207 31.897 148.107 31.697 149.087 31.697C150.467 31.697 151.687 32.027 152.747 32.687C153.827 33.347 154.667 34.247 155.267 35.387C155.887 36.527 156.197 37.827 156.197 39.287C156.197 40.747 155.887 42.047 155.267 43.187C154.667 44.327 153.827 45.227 152.747 45.887C151.687 46.547 150.467 46.877 149.087 46.877ZM148.247 42.737C148.907 42.737 149.477 42.587 149.957 42.287C150.457 41.987 150.847 41.577 151.127 41.057C151.407 40.537 151.547 39.947 151.547 39.287C151.547 38.607 151.407 38.007 151.127 37.487C150.847 36.967 150.457 36.567 149.957 36.287C149.477 35.987 148.917 35.837 148.277 35.837C147.637 35.837 147.067 35.987 146.567 36.287C146.087 36.567 145.707 36.967 145.427 37.487C145.147 38.007 145.007 38.607 145.007 39.287C145.007 39.947 145.137 40.537 145.397 41.057C145.677 41.577 146.067 41.987 146.567 42.287C147.067 42.587 147.627 42.737 148.247 42.737ZM140.687 52.727V31.997H145.277V35.747L144.527 39.287L145.217 42.827V52.727H140.687ZM159.549 49.457H157.719V46.097H158.859C159.699 46.097 160.249 45.927 160.509 45.587C160.789 45.227 160.899 44.707 160.839 44.027L160.599 40.967C160.519 40.127 160.549 39.417 160.689 38.837C160.849 38.257 161.179 37.787 161.679 37.427C162.199 37.047 162.939 36.757 163.899 36.557V37.697C162.939 37.457 162.199 37.147 161.679 36.767C161.179 36.387 160.849 35.907 160.689 35.327C160.549 34.747 160.519 34.037 160.599 33.197L160.839 30.227C160.919 29.527 160.819 29.007 160.539 28.667C160.259 28.327 159.699 28.157 158.859 28.157H157.719V24.797H159.549C161.289 24.797 162.609 25.257 163.509 26.177C164.409 27.077 164.769 28.417 164.589 30.197L164.259 33.707C164.199 34.327 164.269 34.767 164.469 35.027C164.689 35.287 165.079 35.417 165.639 35.417H166.479V38.717H165.639C165.079 38.717 164.689 38.847 164.469 39.107C164.269 39.367 164.199 39.807 164.259 40.427L164.589 44.057C164.769 45.857 164.409 47.207 163.509 48.107C162.609 49.007 161.289 49.457 159.549 49.457Z" fill="white"/>
</g>
<defs>
<clipPath id="clip0_1211_4">
<rect width="75" height="44" fill="white" transform="translate(103 15)"/>
</clipPath>
</defs>
</svg>
