<svg width="173" height="350" viewBox="0 0 173 350" fill="none" xmlns="http://www.w3.org/2000/svg">
<g clip-path="url(#clip0_807_10)">
<path d="M24.8929 92.8804L45.6865 10.8755L123.593 38.1938L88.6139 115.21L53.6117 112.869L24.8929 92.8804Z" fill="#E44F26" fill-opacity="0.3"/>
<path d="M56.0291 106.127L84.3147 108.019L114.203 42.2044L82.3594 31.0381L56.0291 106.127Z" fill="#F1662A" fill-opacity="0.1"/>
<path d="M72.0186 60.5282L59.113 56.0028L61.7252 45.704L75.5205 50.5414L78.9405 40.7881L54.4863 32.2131L53.8015 34.914L46.7727 62.6281L68.5985 70.2815L72.0186 60.5282ZM63.1371 85.8564L63.0885 85.8536L53.2555 79.1138L55.2888 71.0924L45.4976 67.6591L41.4954 83.4481L59.5301 96.0013L59.5787 96.0042L63.1371 85.8564Z" fill="#EBEBEB" fill-opacity="0.7"/>
<path d="M71.9833 60.5159L68.5633 70.2692L80.5726 74.4804L75.0072 86.7342L63.0985 85.8536L59.5401 96.0013L81.4798 97.4689L82.2025 95.8727L93.4965 71.0007L94.6547 68.4658L71.9833 60.5159ZM78.9053 40.7759L75.4852 50.5292L99.0433 58.7899L100.007 56.6687L102.186 51.8802L103.337 49.3431L78.9053 40.7759Z" fill="white" fill-opacity="0.5"/>
</g>
<g clip-path="url(#clip1_807_10)">
<path d="M84.1946 226.338L48.8389 148.611L127.446 120.981L148.485 203.726L119.432 223.965L84.1946 226.338Z" fill="#1572B6" fill-opacity="0.5"/>
<path d="M117.082 217.128L140.561 200.773L122.582 130.063L90.4492 141.358L117.082 217.128Z" fill="#33A9DC" fill-opacity="0.7"/>
<path d="M100.668 170.428L113.69 165.851L111.046 155.458L97.1254 160.351L93.666 150.509L118.342 141.835L119.034 144.558L126.151 172.529L104.127 180.27L100.668 170.428Z" fill="white" fill-opacity="0.7"/>
<path d="M109.712 195.965L109.672 195.994L97.6713 196.885L94.2121 189.282L84.332 192.755L91.1421 207.723L113.268 206.235L113.311 206.205L109.712 195.965Z" fill="#EBEBEB" fill-opacity="0.5"/>
<path d="M116.166 175.57L119.614 189.165L109.679 195.984L113.278 206.224L131.487 193.541L131.052 191.827L126.039 172.099L116.166 175.57Z" fill="white" fill-opacity="0.7"/>
<path d="M93.7008 150.497L97.1602 160.338L73.3882 168.694L72.413 166.551L70.2103 161.719L69.0469 159.162L93.7008 150.497ZM100.667 170.428L104.127 180.27L93.3043 184.074L92.329 181.931L90.1295 177.098L88.9661 174.541L100.667 170.428Z" fill="#EBEBEB" fill-opacity="0.5"/>
</g>
<g clip-path="url(#clip2_807_10)">
<path d="M30.6758 240.785L123.918 249.237L115.466 342.48L22.2236 334.027L30.6758 240.785Z" fill="#F5DE19" fill-opacity="0.2"/>
<path d="M86.7081 319.308C87.3562 320.994 88.4676 322.462 89.914 323.544C91.3604 324.625 93.0831 325.276 94.8833 325.421C98.5131 325.75 100.999 324.146 101.227 321.632C101.498 318.634 99.2112 317.346 95.3735 315.236L93.2674 314.098C87.1845 310.83 83.2943 307.076 83.9409 299.943C84.5365 293.373 89.9854 288.821 97.8211 289.531C100.374 289.578 102.857 290.375 104.96 291.824C107.063 293.273 108.693 295.308 109.646 297.677L102.399 301.435C102.055 300.272 101.365 299.242 100.421 298.48C99.4777 297.718 98.3247 297.261 97.1153 297.169C96.5931 297.069 96.0557 297.078 95.5374 297.197C95.019 297.315 94.5311 297.541 94.1046 297.858C93.6781 298.176 93.3225 298.579 93.0604 299.041C92.7983 299.504 92.6354 300.016 92.5822 300.545C92.344 303.173 93.8758 304.386 97.4873 306.362L99.5934 307.5C106.75 311.368 110.664 315.003 110.001 322.32C109.286 330.209 102.697 333.969 94.375 333.215C91.1137 333.128 87.9474 332.098 85.2582 330.251C82.569 328.404 80.4717 325.819 79.2195 322.806L86.7081 319.308ZM55.686 317.262C56.84 319.827 57.905 322.006 60.9154 322.278C63.7926 322.539 65.7129 321.578 66.1098 317.199L68.8106 287.405L77.5721 288.199L74.8607 318.11C74.0385 327.181 68.336 330.828 60.5802 330.125C57.8251 330.026 55.1644 329.096 52.9477 327.457C50.7311 325.818 49.0623 323.546 48.1608 320.941L55.686 317.262Z" fill="black" fill-opacity="0.2"/>
</g>
<defs>
<clipPath id="clip0_807_10">
<rect width="107" height="107" fill="white" transform="translate(36.3662 0.520752) rotate(19.3235)"/>
</clipPath>
<clipPath id="clip1_807_10">
<rect width="108" height="108" fill="white" transform="translate(34.96 146.334) rotate(-19.3664)"/>
</clipPath>
<clipPath id="clip2_807_10">
<rect width="107" height="107" fill="white" transform="translate(24.6191 233.521) rotate(5.17954)"/>
</clipPath>
</defs>
</svg>
