<svg width="160" height="125" viewBox="0 0 160 125" fill="none" xmlns="http://www.w3.org/2000/svg">
<g clip-path="url(#clip0_707_150)">
<path d="M66.17 102.27C65.7225 102.125 65.3432 101.87 65.0226 101.536L61.8156 97.8978C61.3248 97.3767 61.6619 97.3545 61.8604 97.3532C62.7529 97.3467 62.9216 97.3353 63.9116 97.1305C64.0206 97.0998 64.1304 97.1685 64.2005 97.2569L66.6562 100.06C66.7562 100.158 66.9055 100.206 67.0141 100.176L81.1525 97.163C81.2911 97.1422 81.3897 97.0424 81.4379 96.8939L85.8871 83.1744C85.9355 83.0253 85.9141 82.8871 85.8141 82.7887L76.125 72.0818C76.025 71.9834 75.8758 71.935 75.7671 71.9657L61.6384 74.9485C61.4998 74.9693 61.3916 75.0987 61.353 75.2177L56.9038 88.9372C56.8651 89.0564 56.8768 89.2244 56.9768 89.3228L59.6221 92.2527C61.0936 93.7166 62.5356 93.0331 62.8734 91.9915L67.2647 78.4504C67.3226 78.272 67.5298 78.1417 67.7388 78.2095L69.2608 78.7031C69.4401 78.7612 69.5708 78.9681 69.5032 79.1764L65.1118 92.7174C64.3494 95.0684 62.6219 96.0213 60.3835 95.2954C59.6971 95.0728 59.1599 94.8986 57.8789 93.6607L55.3242 90.8589C54.6928 90.161 54.4857 89.1726 54.7752 88.2799L59.2244 74.5604C59.5139 73.6676 60.2617 72.9889 61.1825 72.7944L75.3206 69.7817C76.202 69.6071 77.2169 69.9362 77.8279 70.5948L87.5071 81.3314C88.1384 82.0293 88.3458 83.0178 88.0563 83.9106L83.6071 97.6301C83.3176 98.5228 82.5695 99.2014 81.6488 99.396L67.5106 102.409C67.0646 102.462 66.5881 102.405 66.1703 102.27L66.17 102.27ZM72.9007 94.0265C67.6777 92.3327 67.3752 89.6034 68.0315 87.5797C68.0895 87.401 68.2966 87.271 68.5055 87.3387L70.0576 87.842C70.2365 87.9001 70.3472 88.0674 70.2893 88.2461C70.0166 89.9008 70.4521 90.8972 73.6159 91.9232C76.1229 92.7362 77.3811 92.5193 77.8154 91.1801C78.0664 90.4063 77.9509 89.7442 74.1666 88.0892C71.0194 86.7066 69.2214 85.3344 70.0611 82.7452C70.8429 80.3345 73.336 79.5642 76.7383 80.6676C80.5586 81.9065 82.0144 83.826 81.3268 86.7601C81.2978 86.8497 81.2389 86.9291 81.1503 86.9991C81.0711 87.0392 80.9624 87.0697 80.8728 87.0406L79.3208 86.5373C79.1715 86.4889 79.0608 86.3215 79.0794 86.163C79.252 84.4102 78.5005 83.5743 76.0531 82.7806C73.3072 81.8901 72.6698 82.7361 72.4382 83.4501C72.1583 84.3132 72.4596 84.7069 76.0061 86.3832C79.5228 88.0502 81.0321 89.296 80.2022 91.8553C79.3229 94.4646 76.6914 95.2558 72.9007 94.0265Z" fill="#539E43" fill-opacity="0.5"/>
<path d="M46.621 36.6288C46.7947 36.0932 46.6603 35.4901 46.2697 35.0675L35.9696 23.702C35.7991 23.515 35.5797 23.3781 35.3508 23.2708L35.2312 23.2321C34.9926 23.1547 34.7248 23.1666 34.4772 23.218L19.4673 26.3755C18.9027 26.4883 18.4403 26.8976 18.2666 27.4335L11.9653 46.9659C11.8784 47.2337 11.9409 47.5499 12.1408 47.7465C12.3314 47.9728 12.6297 48.0696 12.8871 47.9886L21.7983 46.1422C22.3626 46.0293 22.8253 45.6201 22.999 45.0845L25.9619 35.9479C26.1356 35.4123 26.598 35.0031 27.1626 34.8902L30.9545 34.0806C31.2416 34.0092 31.5295 34.0366 31.7981 34.1237C32.0667 34.2108 32.3159 34.3576 32.4768 34.5743L35.0718 37.4552C35.4627 37.8779 35.597 38.4804 35.4232 39.0162L32.4602 48.1528C32.2865 48.6884 32.421 49.2912 32.8116 49.7138L38.9432 56.4385C39.0357 56.5492 39.1577 56.6315 39.295 56.676C39.4323 56.7206 39.5794 56.7255 39.7192 56.6902C39.9967 56.6485 40.2329 56.4291 40.3197 56.1613L46.621 36.6288ZM116.164 29.4813C115.964 29.2847 115.665 29.1879 115.417 29.2393C115.131 29.3108 114.904 29.5003 114.817 29.7681L108.544 49.1126C108.486 49.2911 108.339 49.4406 108.121 49.5017C107.913 49.5327 107.734 49.4746 107.584 49.3275L105.009 46.4861C104.819 46.2792 104.58 46.1249 104.313 46.0383C104.046 45.9518 103.761 45.9359 103.486 45.9924L88.4667 49.1797C87.9024 49.2927 87.4398 49.7018 87.2661 50.2374L82.5466 64.7902C82.3729 65.3258 82.5073 65.9289 82.8979 66.3515L93.1883 77.7469C93.3776 77.9538 93.6174 78.1081 93.8844 78.1946C94.1513 78.2812 94.436 78.297 94.7107 78.2406L109.73 75.0532C110.295 74.9403 110.757 74.5311 110.931 73.9953L122.696 37.7173C122.879 37.1519 122.745 36.5493 122.354 36.1264L116.164 29.4814L116.164 29.4813ZM102.994 66.126C102.945 66.2748 102.847 66.3744 102.708 66.3951L97.5699 67.4915C97.4999 67.5013 97.4286 67.495 97.3613 67.4732C97.2941 67.4514 97.2326 67.4146 97.1817 67.3656L93.6648 63.4623C93.5645 63.3641 93.5531 63.1959 93.5917 63.077L95.2131 58.0771C95.2614 57.9283 95.3596 57.8286 95.4985 57.8079L100.637 56.7113C100.707 56.7015 100.778 56.7078 100.845 56.7296C100.913 56.7514 100.974 56.7882 101.025 56.8372L104.542 60.7407C104.642 60.8387 104.654 61.0072 104.615 61.1261L102.994 66.126ZM147.931 75.0421C148.496 74.9292 148.928 74.5103 149.102 73.9745L150.251 70.4331C150.424 69.8975 150.29 69.2947 149.929 68.8817L139.718 57.5453C139.529 57.3384 139.289 57.1841 139.022 57.0975C138.756 57.0109 138.471 56.9951 138.196 57.0516L123.177 60.2386C122.612 60.3515 122.15 60.7608 121.976 61.2964L117.256 75.8494C117.083 76.385 117.217 76.9878 117.608 77.4104L127.857 88.6279C128.248 89.0506 128.815 89.2345 129.35 89.1119L138.331 87.3545C138.608 87.3128 138.844 87.0934 138.931 86.8256C139.018 86.5578 138.956 86.2416 138.755 86.0449L128.405 74.6302C128.215 74.4039 128.143 74.1176 128.229 73.8498L129.706 69.2964C129.793 69.0286 130.029 68.8093 130.307 68.7675L135.01 67.7929C135.149 67.7577 135.296 67.7626 135.434 67.8072C135.571 67.8517 135.693 67.934 135.786 68.0446L139.022 71.5938C139.212 71.8201 139.284 72.1064 139.197 72.3745L138.039 75.9457C137.952 76.2135 138.015 76.5297 138.215 76.7261C138.308 76.8368 138.429 76.9191 138.567 76.9636C138.704 77.0081 138.851 77.0131 138.991 76.9778L147.931 75.0421Z" fill="#333333" fill-opacity="0.5"/>
<path d="M134.632 69.9727C134.686 69.958 134.743 69.9593 134.796 69.9765C134.849 69.9937 134.896 70.0261 134.931 70.0695L136.895 72.2523C136.965 72.341 136.996 72.4495 136.957 72.5685L136.05 75.3662C136.011 75.4851 135.923 75.5552 135.814 75.5856L132.943 76.2003C132.889 76.2151 132.832 76.2138 132.779 76.1966C132.726 76.1794 132.679 76.147 132.644 76.1035L130.68 73.9208C130.61 73.8323 130.579 73.7236 130.618 73.6046L131.525 70.8071C131.564 70.6879 131.652 70.6178 131.761 70.5878L134.632 69.9727Z" fill="#539E43" fill-opacity="0.5"/>
<path d="M80.7349 46.4742L70.455 35.1483C70.3512 35.0457 70.2374 34.9536 70.1152 34.8736L48.1308 54.4514C48.2018 54.632 48.3041 54.7988 48.4331 54.9441L58.7129 66.2702C59.0035 66.5947 59.402 66.7897 59.8286 66.7963L80.9667 46.8787C80.9157 46.7307 80.8252 46.6023 80.7348 46.4745L80.7349 46.4742Z" fill="url(#paint0_linear_707_150)" fill-opacity="0.5"/>
<path fill-rule="evenodd" clip-rule="evenodd" d="M69.4036 31.8803L69.1956 31.9116L69.4342 31.989L69.4036 31.8803Z" fill="url(#paint1_linear_707_150)" fill-opacity="0.5"/>
<path fill-rule="evenodd" clip-rule="evenodd" d="M75.2154 63.5965C75.6412 63.5044 76.0256 63.2343 76.2706 62.8863L70.0651 34.8246C69.7262 34.6489 69.3284 34.5527 68.9329 34.6546L54.0615 37.7916L59.6099 66.7583C59.817 66.79 60.0274 66.7918 60.2349 66.7638L75.2151 63.5967L75.2154 63.5965Z" fill="url(#paint2_linear_707_150)" fill-opacity="0.7"/>
<path fill-rule="evenodd" clip-rule="evenodd" d="M76.4564 63.736L76.415 63.5581L76.3475 63.7664L76.4561 63.7359L76.4564 63.736Z" fill="url(#paint3_linear_707_150)" fill-opacity="0.5"/>
<path fill-rule="evenodd" clip-rule="evenodd" d="M75.215 63.5964L60.2744 66.7436C60.0673 66.7763 59.8561 66.7745 59.6494 66.7381L59.7435 67.2621L76.3271 63.7271L76.3851 63.5484L76.2199 62.8369C76.0252 63.2342 75.6408 63.5042 75.215 63.5964Z" fill="url(#paint4_linear_707_150)" fill-opacity="0.5"/>
<path fill-rule="evenodd" clip-rule="evenodd" d="M75.215 63.5964L60.2744 66.7436C60.0673 66.7763 59.8561 66.7745 59.6494 66.7381L59.7435 67.2621L76.3271 63.7271L76.3851 63.5484L76.2199 62.8369C76.0252 63.2342 75.6408 63.5042 75.215 63.5964Z" fill="url(#paint5_linear_707_150)" fill-opacity="0.5"/>
</g>
<defs>
<linearGradient id="paint0_linear_707_150" x1="62.1454" y1="51.7779" x2="102.68" y2="44.1795" gradientUnits="userSpaceOnUse">
<stop offset="0.1376" stop-color="#41873F"/>
<stop offset="0.4032" stop-color="#54A044"/>
<stop offset="0.7136" stop-color="#66B848"/>
<stop offset="0.9081" stop-color="#6CC04A"/>
</linearGradient>
<linearGradient id="paint1_linear_707_150" x1="58.6887" y1="28.4187" x2="81.9341" y2="35.9572" gradientUnits="userSpaceOnUse">
<stop offset="0.09192" stop-color="#6CC04A"/>
<stop offset="0.2864" stop-color="#66B848"/>
<stop offset="0.5968" stop-color="#54A044"/>
<stop offset="0.8624" stop-color="#41873F"/>
</linearGradient>
<linearGradient id="paint2_linear_707_150" x1="50.0718" y1="45.9869" x2="79.148" y2="55.4163" gradientUnits="userSpaceOnUse">
<stop offset="0.09192" stop-color="#6CC04A"/>
<stop offset="0.2864" stop-color="#66B848"/>
<stop offset="0.5968" stop-color="#54A044"/>
<stop offset="0.8624" stop-color="#41873F"/>
</linearGradient>
<linearGradient id="paint3_linear_707_150" x1="67.686" y1="60.8106" x2="76.4156" y2="63.6417" gradientUnits="userSpaceOnUse">
<stop offset="0.09192" stop-color="#6CC04A"/>
<stop offset="0.2864" stop-color="#66B848"/>
<stop offset="0.5968" stop-color="#54A044"/>
<stop offset="0.8624" stop-color="#41873F"/>
</linearGradient>
<linearGradient id="paint4_linear_707_150" x1="46.1744" y1="58.0042" x2="75.2502" y2="67.4335" gradientUnits="userSpaceOnUse">
<stop offset="0.09192" stop-color="#6CC04A"/>
<stop offset="0.2864" stop-color="#66B848"/>
<stop offset="0.5968" stop-color="#54A044"/>
<stop offset="0.8624" stop-color="#41873F"/>
</linearGradient>
<linearGradient id="paint5_linear_707_150" x1="86.9775" y1="45.7073" x2="67.1688" y2="81.826" gradientUnits="userSpaceOnUse">
<stop stop-color="#41873F"/>
<stop offset="0.3288" stop-color="#418B3D"/>
<stop offset="0.6352" stop-color="#419637"/>
<stop offset="0.9319" stop-color="#3FA92D"/>
<stop offset="1" stop-color="#3FAE2A"/>
</linearGradient>
<clipPath id="clip0_707_150">
<rect width="139" height="85" fill="white" transform="translate(26.9512 0.451172) rotate(17.9679)"/>
</clipPath>
</defs>
</svg>
