<svg width="161" height="220" viewBox="0 0 161 220" fill="none" xmlns="http://www.w3.org/2000/svg">
<g clip-path="url(#clip0_707_100)">
<path d="M33.9319 206.095C52.4096 208.473 69.3405 195.37 71.7243 176.846L76.0426 143.29L42.5687 138.982C24.0911 136.604 7.1601 149.708 4.77635 168.231C2.39261 186.754 15.4543 203.717 33.9319 206.095Z" fill="#0ACF83" fill-opacity="0.5"/>
<path d="M13.4131 101.118C15.7968 82.5946 32.7278 69.4911 51.2054 71.869L84.6794 76.1768L76.0426 143.29L42.5687 138.982C24.091 136.604 11.0293 119.641 13.4131 101.118Z" fill="#A259FF" fill-opacity="0.5"/>
<path d="M22.0498 34.0046C24.4335 15.4814 41.3645 2.37786 59.8421 4.75573L93.3161 9.06347L84.6793 76.1767L51.2054 71.869C32.7278 69.4911 19.6661 52.5279 22.0498 34.0046Z" fill="#F24E1E" fill-opacity="0.5"/>
<path d="M93.3164 9.06348L126.79 13.3712C145.268 15.7491 158.33 32.7123 155.946 51.2356C153.562 69.7588 136.631 82.8623 118.154 80.4844L84.6797 76.1767L93.3164 9.06348Z" fill="#FF7262" fill-opacity="0.5"/>
<path d="M147.309 118.349C144.925 136.872 127.995 149.976 109.517 147.598C91.0393 145.22 77.9776 128.257 80.3613 109.733C82.7451 91.2101 99.676 78.1066 118.154 80.4845C136.631 82.8624 149.693 99.8256 147.309 118.349Z" fill="#1ABCFE" fill-opacity="0.5"/>
</g>
<defs>
<clipPath id="clip0_707_100">
<rect width="135" height="203" fill="white" transform="translate(26.3682 0.447998) rotate(7.33304)"/>
</clipPath>
</defs>
</svg>
