<svg width="139" height="61" viewBox="0 0 139 61" fill="none" xmlns="http://www.w3.org/2000/svg">
<g clip-path="url(#clip0_707_133)">
<path d="M6.38672 51.288L4.02146 36.5623L22.2683 33.6314L22.13 32.7701L3.88311 35.7009L1.72532 22.2668L21.1258 19.1507L20.9875 18.2896L0.732422 21.543L5.67044 52.2864L26.0964 49.0055L25.9581 48.1444L6.38697 51.288L6.38672 51.288ZM38.9938 24.2311L33.0417 35.4785L24.0374 26.6336L22.9263 26.8121L32.6326 36.207L25.7116 49.0671L26.7373 48.9023L33.2487 36.77L43.2747 46.2461L44.343 46.0745L33.7005 36.0349L40.0189 24.0661L38.9935 24.2308L38.9938 24.2311ZM48.1245 53.2412L45.9114 39.4628L45.9968 39.4491C46.8325 41.376 48.1032 42.8283 49.809 43.8058C51.5148 44.7831 53.5357 45.0844 55.8717 44.7092C57.3815 44.4667 58.6711 43.943 59.7399 43.1383C60.8088 42.3336 61.6496 41.3372 62.2625 40.1492C62.8752 38.9612 63.2753 37.6308 63.4626 36.1578C63.6496 34.6851 63.6188 33.1734 63.3699 31.6236C63.1025 29.9585 62.6419 28.457 61.9887 27.1192C61.3355 25.7812 60.5198 24.6607 59.5421 23.7579C58.5641 22.8548 57.4522 22.2087 56.2061 21.8203C54.9602 21.4314 53.6107 21.3536 52.1578 21.587C51.0467 21.7655 50.0406 22.0964 49.1393 22.5798C48.238 23.0633 47.4655 23.6656 46.8216 24.3875C46.1741 25.1148 45.6411 25.9377 45.2408 26.8277C44.8311 27.7328 44.562 28.6962 44.4338 29.7181L44.3484 29.7318L43.3524 23.531L42.4978 23.6682L47.2699 53.3784L48.1245 53.2412ZM55.7402 43.8908C53.0626 44.3208 50.7628 43.7406 48.8417 42.15C46.9205 40.5594 45.6808 38.0272 45.1229 34.5539C44.8924 33.1186 44.8729 31.723 45.0643 30.3673C45.2557 29.0116 45.6503 27.785 46.2484 26.6879C46.8467 25.5905 47.6553 24.6656 48.6739 23.9132C49.6927 23.1605 50.9003 22.672 52.296 22.4478C53.7205 22.219 55.0131 22.3059 56.1736 22.7086C57.334 23.111 58.343 23.7514 59.1999 24.6296C60.0568 25.5078 60.766 26.5572 61.3274 27.7771C61.8886 28.9974 62.2844 30.325 62.515 31.7604C62.7225 33.0523 62.7652 34.3632 62.6426 35.6931C62.5202 37.0231 62.1989 38.2526 61.6788 39.3816C61.1589 40.5102 60.4168 41.4833 59.4521 42.301C58.4873 43.1184 57.2501 43.6482 55.7402 43.8908ZM69.8546 41.9771L67.8421 29.4472C67.6484 28.2416 67.6302 27.037 67.7879 25.8341C67.9451 24.631 68.3096 23.5344 68.8813 22.5446C69.4529 21.5547 70.2466 20.7204 71.2628 20.0418C72.2789 19.3633 73.5489 18.9459 75.0726 18.7894L74.9343 17.9284C73.6191 18.1104 72.4956 18.4377 71.5635 18.9114C70.6312 19.3851 69.8529 19.9518 69.2283 20.6117C68.6037 21.2714 68.1366 22.0015 67.8269 22.8023C67.5173 23.6018 67.3275 24.4435 67.2635 25.2999L67.1781 25.3136L66.2998 19.8452L65.4452 19.9824L69.0001 42.1146L69.8547 41.9773L69.8546 41.9771ZM77.8906 29.5116L96.2654 26.5602C96.0783 25.0296 95.6936 23.5899 95.1114 22.2404C94.5295 20.891 93.759 19.7338 92.8006 18.769C91.8418 17.804 90.6899 17.0909 89.3445 16.6296C87.9992 16.1684 86.4719 16.0752 84.7628 16.3497C83.5376 16.5465 82.3826 16.9971 81.2976 17.7016C80.2126 18.4058 79.3079 19.3238 78.584 20.456C77.86 21.5881 77.3425 22.9154 77.0319 24.4379C76.7213 25.9599 76.7132 27.6395 77.0083 29.4767C77.2711 31.1129 77.7018 32.6117 78.3004 33.9731C78.899 35.3345 79.6669 36.4775 80.6044 37.4017C81.5421 38.3258 82.6623 38.9777 83.9651 39.3573C85.2679 39.737 86.7718 39.7752 88.4767 39.4719C90.9835 39.0693 92.9776 38.0199 94.4586 36.3248C95.9398 34.6291 96.6295 32.4646 96.5279 29.8307L95.6733 29.968C95.6949 32.4676 95.0414 34.4497 93.7133 35.9143C92.385 37.3792 90.5674 38.2968 88.2596 38.6675C86.6928 38.9191 85.3243 38.8593 84.1541 38.4879C82.9842 38.1164 81.9809 37.5117 81.145 36.6744C80.3093 35.8367 79.6249 34.8057 79.0922 33.5808C78.5593 32.3563 78.1588 30.9997 77.8906 29.5116ZM95.2725 25.8364L77.7525 28.6504C77.5887 27.0867 77.65 25.6487 77.936 24.3367C78.2222 23.0243 78.6865 21.8676 79.3295 20.8665C79.9721 19.8651 80.7767 19.0513 81.7427 18.4249C82.7087 17.7986 83.79 17.3892 84.9865 17.1971C86.411 16.9683 87.7068 17.0327 88.8749 17.3898C90.0426 17.747 91.0636 18.3266 91.9377 19.1284C92.8116 19.9302 93.5317 20.9115 94.098 22.0718C94.6643 23.2324 95.0559 24.4873 95.2725 25.8364ZM113.246 19.0186L114.1 18.8813C113.704 16.4125 112.703 14.7329 111.099 13.8421C109.495 12.9514 107.468 12.7028 105.018 13.0963C103.65 13.316 102.524 13.6736 101.639 14.1691C100.755 14.6644 100.057 15.2329 99.5463 15.8743C99.0358 16.5157 98.7053 17.1872 98.5549 17.8887C98.4045 18.5902 98.3777 19.2424 98.4745 19.8451C98.6681 21.0507 99.0362 21.978 99.5791 22.627C100.122 23.276 100.881 23.7283 101.857 23.9837C102.53 24.1699 103.283 24.314 104.118 24.4158C104.953 24.5172 105.918 24.6124 107.013 24.7013C107.99 24.7803 108.953 24.8611 109.902 24.9441C110.85 25.0275 111.705 25.2068 112.465 25.4821C113.225 25.7576 113.874 26.1612 114.413 26.6932C114.951 27.225 115.299 27.979 115.455 28.9549C115.607 29.9023 115.516 30.7414 115.18 31.4724C114.848 32.1996 114.36 32.8436 113.752 33.3585C113.135 33.8844 112.421 34.3081 111.611 34.6297C110.8 34.9513 109.996 35.1761 109.199 35.3042C106.606 35.7206 104.526 35.4586 102.957 34.5181C101.389 33.5773 100.404 31.8583 100.003 29.3608L99.1483 29.4981C99.5956 32.2827 100.671 34.2006 102.374 35.2523C104.077 36.3037 106.396 36.5937 109.33 36.1224C110.27 35.9714 111.2 35.7115 112.12 35.3429C113.04 34.9744 113.838 34.4856 114.514 33.8762C115.185 33.2747 115.71 32.5257 116.048 31.6868C116.393 30.836 116.476 29.851 116.296 28.7315C116.126 27.6693 115.781 26.8415 115.262 26.2475C114.743 25.6538 114.114 25.1952 113.375 24.8722C112.636 24.5492 111.827 24.3332 110.948 24.2242C110.063 24.1145 109.177 24.0138 108.291 23.9219C107.2 23.8134 106.11 23.7089 105.019 23.6085C104.085 23.5228 103.207 23.384 102.388 23.1918C101.596 22.9949 100.932 22.6379 100.396 22.1204C99.86 21.6029 99.5045 20.7986 99.3293 19.7078C99.2971 19.507 99.2964 19.1389 99.3273 18.604C99.3581 18.0688 99.5448 17.5015 99.8868 16.9018C100.229 16.3023 100.808 15.7234 101.624 15.1652C102.44 14.6073 103.618 14.2045 105.156 13.9574C106.21 13.7881 107.19 13.7487 108.096 13.8386C109.002 13.9288 109.808 14.1746 110.516 14.5763C111.223 14.9781 111.81 15.5389 112.276 16.259C112.743 16.9794 113.066 17.8991 113.246 19.0186ZM133.031 15.8407L133.885 15.7034C133.489 13.2346 132.489 11.555 130.884 10.6642C129.28 9.7735 127.253 9.52489 124.803 9.91843C123.436 10.138 122.309 10.4958 121.425 10.9912C120.54 11.4865 119.842 12.0551 119.332 12.6964C118.821 13.3378 118.49 14.0094 118.34 14.7109C118.189 15.4124 118.163 16.0645 118.26 16.6672C118.453 17.8728 118.821 18.8001 119.364 19.4491C119.907 20.0982 120.666 20.5504 121.642 20.8058C122.315 20.992 123.069 21.1361 123.903 21.2379C124.738 21.3393 125.703 21.4346 126.798 21.5234C127.776 21.6024 128.738 21.6832 129.687 21.7663C130.635 21.8495 131.49 22.0289 132.25 22.3041C133.01 22.5797 133.659 22.9833 134.198 23.5153C134.736 24.0471 135.084 24.8011 135.241 25.777C135.393 26.7244 135.301 27.5636 134.965 28.2945C134.633 29.0217 134.145 29.6657 133.537 30.1805C132.92 30.7065 132.206 31.1302 131.396 31.4518C130.586 31.7733 129.781 31.9982 128.984 32.1263C126.391 32.5427 124.311 32.2807 122.743 31.3402C121.174 30.3994 120.189 28.6804 119.788 26.1829L118.934 26.3202C119.381 29.1048 120.456 31.0227 122.159 32.0744C123.862 33.1258 126.181 33.4159 129.115 32.9445C130.055 32.7935 130.985 32.5336 131.905 32.165C132.825 31.7965 133.623 31.3078 134.3 30.6983C134.971 30.0968 135.495 29.3477 135.833 28.5089C136.178 27.6581 136.261 26.6732 136.081 25.5536C135.911 24.4915 135.566 23.6635 135.047 23.0696C134.528 22.4759 133.899 22.0173 133.16 21.6943C132.422 21.3713 131.612 21.1553 130.733 21.0463C129.848 20.9366 128.963 20.8359 128.076 20.744C126.986 20.6355 125.895 20.531 124.804 20.4305C123.87 20.3449 122.992 20.2061 122.173 20.0139C121.381 19.817 120.717 19.46 120.181 18.9425C119.645 18.4249 119.29 17.6208 119.114 16.5299C119.082 16.3291 119.081 15.961 119.112 15.4261C119.143 14.8909 119.33 14.3236 119.672 13.7239C120.014 13.1244 120.593 12.5455 121.409 11.9873C122.226 11.4294 123.403 11.0266 124.941 10.7795C125.996 10.6102 126.975 10.5708 127.881 10.6607C128.787 10.7509 129.593 10.9967 130.301 11.3984C131.008 11.8001 131.595 12.361 132.062 13.0811C132.528 13.8015 132.851 14.7211 133.031 15.8407L133.031 15.8407Z" fill="#222222" fill-opacity="0.5"/>
</g>
<defs>
<clipPath id="clip0_707_133">
<rect width="133" height="39" fill="white" transform="translate(0.732422 21.543) rotate(-9.12494)"/>
</clipPath>
</defs>
</svg>
