<svg width="74" height="43" viewBox="0 0 74 43" fill="none" xmlns="http://www.w3.org/2000/svg">
<rect x="1.05444" y="0.572144" width="71.2937" height="40.9134" rx="4.5" stroke="#F8F8F8"/>
<rect x="4.5694" y="3.72717" width="65.188" height="35.7981" rx="4.5" stroke="#F8F8F8"/>
<rect x="2.05444" y="1.57214" width="71.2937" height="40.9134" rx="4.5" stroke="#F8F8F8"/>
<path d="M16.6713 33.5544C14.9313 33.5544 13.6113 33.1044 12.7113 32.2044C11.8313 31.3044 11.4713 29.9544 11.6313 28.1544L11.9613 24.5244C12.0213 23.9044 11.9413 23.4644 11.7213 23.2044C11.5213 22.9444 11.1413 22.8144 10.5813 22.8144H9.74126V19.5144H10.5813C11.1413 19.5144 11.5213 19.3844 11.7213 19.1244C11.9413 18.8644 12.0213 18.4244 11.9613 17.8044L11.6313 14.2944C11.4513 12.5144 11.8113 11.1744 12.7113 10.2744C13.6113 9.35441 14.9313 8.89441 16.6713 8.89441H18.5013V12.2544H17.3613C16.5213 12.2544 15.9613 12.4244 15.6813 12.7644C15.4013 13.1044 15.3013 13.6244 15.3813 14.3244L15.6213 17.2944C15.7013 18.1344 15.6613 18.8444 15.5013 19.4244C15.3613 20.0044 15.0313 20.4844 14.5113 20.8644C14.0113 21.2444 13.2813 21.5544 12.3213 21.7944V20.6544C13.2813 20.8544 14.0113 21.1444 14.5113 21.5244C15.0313 21.8844 15.3613 22.3544 15.5013 22.9344C15.6613 23.5144 15.7013 24.2244 15.6213 25.0644L15.3813 28.1244C15.3213 28.8044 15.4213 29.3244 15.6813 29.6844C15.9613 30.0244 16.5213 30.1944 17.3613 30.1944H18.5013V33.5544H16.6713ZM28.2752 31.0044C26.6952 31.0044 25.2852 30.6844 24.0452 30.0444C22.8252 29.3844 21.8652 28.4744 21.1652 27.3144C20.4652 26.1544 20.1152 24.8444 20.1152 23.3844C20.1152 21.9244 20.4552 20.6244 21.1352 19.4844C21.8352 18.3244 22.7752 17.4144 23.9552 16.7544C25.1352 16.0944 26.4652 15.7644 27.9452 15.7644C29.3852 15.7644 30.6552 16.0744 31.7552 16.6944C32.8552 17.3144 33.7152 18.1744 34.3352 19.2744C34.9752 20.3744 35.2952 21.6344 35.2952 23.0544C35.2952 23.3144 35.2752 23.5944 35.2352 23.8944C35.2152 24.1744 35.1652 24.5044 35.0852 24.8844L22.5152 24.9144V21.7644L33.1352 21.7344L31.1552 23.0544C31.1352 22.2144 31.0052 21.5244 30.7652 20.9844C30.5252 20.4244 30.1652 20.0044 29.6852 19.7244C29.2252 19.4244 28.6552 19.2744 27.9752 19.2744C27.2552 19.2744 26.6252 19.4444 26.0852 19.7844C25.5652 20.1044 25.1552 20.5644 24.8552 21.1644C24.5752 21.7644 24.4352 22.4944 24.4352 23.3544C24.4352 24.2144 24.5852 24.9544 24.8852 25.5744C25.2052 26.1744 25.6452 26.6444 26.2052 26.9844C26.7852 27.3044 27.4652 27.4644 28.2452 27.4644C28.9652 27.4644 29.6152 27.3444 30.1952 27.1044C30.7752 26.8444 31.2852 26.4644 31.7252 25.9644L34.2452 28.4844C33.5252 29.3244 32.6552 29.9544 31.6352 30.3744C30.6152 30.7944 29.4952 31.0044 28.2752 31.0044ZM45.9107 30.9744C44.9307 30.9744 44.0307 30.7844 43.2107 30.4044C42.3907 30.0244 41.7207 29.5044 41.2007 28.8444C40.6807 28.1644 40.3807 27.3944 40.3007 26.5344V20.3844C40.3807 19.5244 40.6807 18.7444 41.2007 18.0444C41.7207 17.3444 42.3907 16.7944 43.2107 16.3944C44.0307 15.9944 44.9307 15.7944 45.9107 15.7944C47.2907 15.7944 48.5107 16.1244 49.5707 16.7844C50.6507 17.4444 51.4907 18.3444 52.0907 19.4844C52.7107 20.6244 53.0207 21.9244 53.0207 23.3844C53.0207 24.8444 52.7107 26.1444 52.0907 27.2844C51.4907 28.4244 50.6507 29.3244 49.5707 29.9844C48.5107 30.6444 47.2907 30.9744 45.9107 30.9744ZM45.0707 26.8344C45.7307 26.8344 46.3007 26.6844 46.7807 26.3844C47.2807 26.0844 47.6707 25.6744 47.9507 25.1544C48.2307 24.6344 48.3707 24.0444 48.3707 23.3844C48.3707 22.7044 48.2307 22.1044 47.9507 21.5844C47.6707 21.0644 47.2807 20.6644 46.7807 20.3844C46.3007 20.0844 45.7407 19.9344 45.1007 19.9344C44.4607 19.9344 43.8907 20.0844 43.3907 20.3844C42.9107 20.6644 42.5307 21.0644 42.2507 21.5844C41.9707 22.1044 41.8307 22.7044 41.8307 23.3844C41.8307 24.0444 41.9607 24.6344 42.2207 25.1544C42.5007 25.6744 42.8907 26.0844 43.3907 26.3844C43.8907 26.6844 44.4507 26.8344 45.0707 26.8344ZM37.5107 36.8244V16.0944H42.1007V19.8444L41.3507 23.3844L42.0407 26.9244V36.8244H37.5107ZM56.3725 33.5544H54.5425V30.1944H55.6825C56.5225 30.1944 57.0725 30.0244 57.3325 29.6844C57.6125 29.3244 57.7225 28.8044 57.6625 28.1244L57.4225 25.0644C57.3425 24.2244 57.3725 23.5144 57.5125 22.9344C57.6725 22.3544 58.0025 21.8844 58.5025 21.5244C59.0225 21.1444 59.7625 20.8544 60.7225 20.6544V21.7944C59.7625 21.5544 59.0225 21.2444 58.5025 20.8644C58.0025 20.4844 57.6725 20.0044 57.5125 19.4244C57.3725 18.8444 57.3425 18.1344 57.4225 17.2944L57.6625 14.3244C57.7425 13.6244 57.6425 13.1044 57.3625 12.7644C57.0825 12.4244 56.5225 12.2544 55.6825 12.2544H54.5425V8.89441H56.3725C58.1125 8.89441 59.4325 9.35441 60.3325 10.2744C61.2325 11.1744 61.5925 12.5144 61.4125 14.2944L61.0825 17.8044C61.0225 18.4244 61.0925 18.8644 61.2925 19.1244C61.5125 19.3844 61.9025 19.5144 62.4625 19.5144H63.3025V22.8144H62.4625C61.9025 22.8144 61.5125 22.9444 61.2925 23.2044C61.0925 23.4644 61.0225 23.9044 61.0825 24.5244L61.4125 28.1544C61.5925 29.9544 61.2325 31.3044 60.3325 32.2044C59.4325 33.1044 58.1125 33.5544 56.3725 33.5544Z" fill="#F8F8F8"/>
</svg>
