<svg width="73" height="43" viewBox="0 0 73 43" fill="none" xmlns="http://www.w3.org/2000/svg">
<rect x="0.5" y="1.41339" width="71.2937" height="40.9134" rx="4.5" stroke="url(#paint0_linear_210_12)"/>
<path d="M16.1168 34.3957C14.3768 34.3957 13.0568 33.9457 12.1568 33.0457C11.2768 32.1457 10.9168 30.7957 11.0768 28.9957L11.4068 25.3657C11.4668 24.7457 11.3868 24.3057 11.1668 24.0457C10.9668 23.7857 10.5868 23.6557 10.0268 23.6557H9.18682V20.3557H10.0268C10.5868 20.3557 10.9668 20.2257 11.1668 19.9657C11.3868 19.7057 11.4668 19.2657 11.4068 18.6457L11.0768 15.1357C10.8968 13.3557 11.2568 12.0157 12.1568 11.1157C13.0568 10.1957 14.3768 9.73566 16.1168 9.73566H17.9468V13.0957H16.8068C15.9668 13.0957 15.4068 13.2657 15.1268 13.6057C14.8468 13.9457 14.7468 14.4657 14.8268 15.1657L15.0668 18.1357C15.1468 18.9757 15.1068 19.6857 14.9468 20.2657C14.8068 20.8457 14.4768 21.3257 13.9568 21.7057C13.4568 22.0857 12.7268 22.3957 11.7668 22.6357V21.4957C12.7268 21.6957 13.4568 21.9857 13.9568 22.3657C14.4768 22.7257 14.8068 23.1957 14.9468 23.7757C15.1068 24.3557 15.1468 25.0657 15.0668 25.9057L14.8268 28.9657C14.7668 29.6457 14.8668 30.1657 15.1268 30.5257C15.4068 30.8657 15.9668 31.0357 16.8068 31.0357H17.9468V34.3957H16.1168ZM27.7207 31.8457C26.1407 31.8457 24.7307 31.5257 23.4907 30.8857C22.2707 30.2257 21.3107 29.3157 20.6107 28.1557C19.9107 26.9957 19.5607 25.6857 19.5607 24.2257C19.5607 22.7657 19.9007 21.4657 20.5807 20.3257C21.2807 19.1657 22.2207 18.2557 23.4007 17.5957C24.5807 16.9357 25.9107 16.6057 27.3907 16.6057C28.8307 16.6057 30.1007 16.9157 31.2007 17.5357C32.3007 18.1557 33.1607 19.0157 33.7807 20.1157C34.4207 21.2157 34.7407 22.4757 34.7407 23.8957C34.7407 24.1557 34.7207 24.4357 34.6807 24.7357C34.6607 25.0157 34.6107 25.3457 34.5307 25.7257L21.9607 25.7557V22.6057L32.5807 22.5757L30.6007 23.8957C30.5807 23.0557 30.4507 22.3657 30.2107 21.8257C29.9707 21.2657 29.6107 20.8457 29.1307 20.5657C28.6707 20.2657 28.1007 20.1157 27.4207 20.1157C26.7007 20.1157 26.0707 20.2857 25.5307 20.6257C25.0107 20.9457 24.6007 21.4057 24.3007 22.0057C24.0207 22.6057 23.8807 23.3357 23.8807 24.1957C23.8807 25.0557 24.0307 25.7957 24.3307 26.4157C24.6507 27.0157 25.0907 27.4857 25.6507 27.8257C26.2307 28.1457 26.9107 28.3057 27.6907 28.3057C28.4107 28.3057 29.0607 28.1857 29.6407 27.9457C30.2207 27.6857 30.7307 27.3057 31.1707 26.8057L33.6907 29.3257C32.9707 30.1657 32.1007 30.7957 31.0807 31.2157C30.0607 31.6357 28.9407 31.8457 27.7207 31.8457ZM45.3563 31.8157C44.3763 31.8157 43.4763 31.6257 42.6563 31.2457C41.8363 30.8657 41.1663 30.3457 40.6463 29.6857C40.1263 29.0057 39.8263 28.2357 39.7463 27.3757V21.2257C39.8263 20.3657 40.1263 19.5857 40.6463 18.8857C41.1663 18.1857 41.8363 17.6357 42.6563 17.2357C43.4763 16.8357 44.3763 16.6357 45.3563 16.6357C46.7363 16.6357 47.9563 16.9657 49.0163 17.6257C50.0963 18.2857 50.9363 19.1857 51.5363 20.3257C52.1563 21.4657 52.4663 22.7657 52.4663 24.2257C52.4663 25.6857 52.1563 26.9857 51.5363 28.1257C50.9363 29.2657 50.0963 30.1657 49.0163 30.8257C47.9563 31.4857 46.7363 31.8157 45.3563 31.8157ZM44.5163 27.6757C45.1763 27.6757 45.7463 27.5257 46.2263 27.2257C46.7263 26.9257 47.1163 26.5157 47.3963 25.9957C47.6763 25.4757 47.8163 24.8857 47.8163 24.2257C47.8163 23.5457 47.6763 22.9457 47.3963 22.4257C47.1163 21.9057 46.7263 21.5057 46.2263 21.2257C45.7463 20.9257 45.1863 20.7757 44.5463 20.7757C43.9063 20.7757 43.3363 20.9257 42.8363 21.2257C42.3563 21.5057 41.9763 21.9057 41.6963 22.4257C41.4163 22.9457 41.2763 23.5457 41.2763 24.2257C41.2763 24.8857 41.4063 25.4757 41.6663 25.9957C41.9463 26.5157 42.3363 26.9257 42.8363 27.2257C43.3363 27.5257 43.8963 27.6757 44.5163 27.6757ZM36.9563 37.6657V16.9357H41.5463V20.6857L40.7963 24.2257L41.4863 27.7657V37.6657H36.9563ZM55.8181 34.3957H53.9881V31.0357H55.1281C55.9681 31.0357 56.5181 30.8657 56.7781 30.5257C57.0581 30.1657 57.1681 29.6457 57.1081 28.9657L56.8681 25.9057C56.7881 25.0657 56.8181 24.3557 56.9581 23.7757C57.1181 23.1957 57.4481 22.7257 57.9481 22.3657C58.4681 21.9857 59.2081 21.6957 60.1681 21.4957V22.6357C59.2081 22.3957 58.4681 22.0857 57.9481 21.7057C57.4481 21.3257 57.1181 20.8457 56.9581 20.2657C56.8181 19.6857 56.7881 18.9757 56.8681 18.1357L57.1081 15.1657C57.1881 14.4657 57.0881 13.9457 56.8081 13.6057C56.5281 13.2657 55.9681 13.0957 55.1281 13.0957H53.9881V9.73566H55.8181C57.5581 9.73566 58.8781 10.1957 59.7781 11.1157C60.6781 12.0157 61.0381 13.3557 60.8581 15.1357L60.5281 18.6457C60.4681 19.2657 60.5381 19.7057 60.7381 19.9657C60.9581 20.2257 61.3481 20.3557 61.9081 20.3557H62.7481V23.6557H61.9081C61.3481 23.6557 60.9581 23.7857 60.7381 24.0457C60.5381 24.3057 60.4681 24.7457 60.5281 25.3657L60.8581 28.9957C61.0381 30.7957 60.6781 32.1457 59.7781 33.0457C58.8781 33.9457 57.5581 34.3957 55.8181 34.3957Z" fill="url(#paint1_linear_210_12)"/>
<defs>
<linearGradient id="paint0_linear_210_12" x1="-0.554444" y1="12.3412" x2="70.9456" y2="33.3412" gradientUnits="userSpaceOnUse">
<stop stop-color="#131313"/>
<stop offset="0.479167" stop-color="#090808"/>
<stop offset="1" stop-color="#343333"/>
</linearGradient>
<linearGradient id="paint1_linear_210_12" x1="33.4456" y1="7.84125" x2="49.9456" y2="41.3412" gradientUnits="userSpaceOnUse">
<stop stop-color="#0B0B0B"/>
<stop offset="0.0001" stop-color="#0B0B0B"/>
<stop offset="1" stop-color="#323131"/>
</linearGradient>
</defs>
</svg>
