<?xml version="1.0" standalone="no"?>
<svg version="1.0" xmlns="http://www.w3.org/2000/svg"
 width="1280.000000pt" height="899.000000pt" viewBox="0 0 1280.000000 899.000000"
 preserveAspectRatio="xMidYMid meet">
<g transform="translate(0.000000,899.000000) scale(0.100000,-0.100000)"
fill="#eee" stroke="none">
<path d="M0 8890 c0 -86 2 -100 17 -100 15 0 15 -1 0 -18 -13 -15 -17 -39 -17
-110 l0 -92 62 0 62 0 -64 -67 -65 -68 70 68 71 67 149 0 150 0 -100 -100
-100 -100 -120 -2 -120 -2 108 -3 c59 -2 107 -7 107 -11 0 -5 -47 -55 -105
-112 l-105 -103 0 -103 0 -104 47 0 47 0 -49 -52 -50 -52 57 52 57 52 140 0
c78 0 141 -3 141 -8 0 -4 -44 -51 -98 -105 l-97 -97 -100 -2 -100 -2 93 -5 93
-6 -91 -90 c-49 -49 -90 -98 -90 -107 0 -16 12 -18 132 -18 l133 0 -100 -100
c-87 -87 -104 -100 -135 -101 -34 -1 -34 -2 -7 -8 l29 -6 -26 -24 c-24 -23
-26 -31 -26 -108 l0 -83 72 0 72 0 -74 -77 -75 -78 80 78 80 77 145 0 145 0
-100 -100 -100 -100 -125 -2 -125 -2 119 -3 120 -4 -104 -104 c-58 -58 -109
-105 -115 -105 -6 0 -11 -9 -12 -21 -2 -20 -1 -20 16 -5 14 13 43 16 162 16
l144 0 -103 -103 -104 -104 -56 -2 c-31 -1 -58 -4 -61 -7 -4 -3 18 -4 47 -3
28 2 52 2 52 -1 0 -3 -22 -28 -50 -55 -47 -47 -50 -52 -50 -102 l0 -53 97 0
98 0 -98 -98 c-53 -53 -97 -103 -97 -110 0 -9 36 -12 142 -12 l143 0 -100
-100 c-95 -96 -102 -100 -145 -102 -37 -1 -39 -2 -12 -5 40 -5 40 -12 2 -48
-28 -27 -30 -34 -30 -102 l0 -73 77 0 78 0 -80 -80 c-43 -44 -77 -82 -74 -84
3 -3 43 33 89 79 l85 85 145 0 145 0 -101 -101 c-55 -55 -109 -102 -120 -104
-10 -2 -70 -4 -131 -4 l-113 -1 0 -110 c0 -96 2 -110 17 -110 14 0 14 -3 -3
-22 l-19 -23 26 23 c24 21 34 22 169 22 l145 0 -105 -105 -105 -105 -65 -2
-65 -2 61 -3 62 -4 -59 -56 c-56 -53 -59 -58 -59 -105 l0 -48 107 0 108 0
-108 -108 -107 -107 0 -108 0 -107 40 0 c22 0 40 -2 40 -5 0 -3 -18 -21 -40
-41 -39 -36 -40 -38 -40 -105 l0 -69 87 0 88 0 -90 -92 -90 -93 95 93 95 92
143 0 c78 0 142 -3 142 -8 0 -4 -43 -50 -95 -102 l-95 -95 -143 -6 -142 -5
135 -2 135 -2 -100 -100 c-86 -87 -104 -100 -135 -101 -23 -1 -27 -3 -13 -6
28 -5 29 -15 3 -38 -17 -15 -20 -31 -20 -102 l0 -83 67 0 67 0 -67 -68 c-59
-59 -67 -72 -67 -105 l0 -37 110 0 c61 0 110 -3 110 -8 0 -12 -194 -202 -207
-202 -7 0 -11 -38 -12 -116 l-2 -116 46 4 c25 2 45 1 45 -2 0 -2 -21 -26 -47
-52 -26 -26 -42 -48 -36 -48 5 0 32 23 58 51 l48 51 136 1 136 1 -127 3 c-71
2 -128 5 -128 7 0 2 46 49 102 104 l103 102 145 0 144 0 -209 -210 -210 -210
-102 0 -103 0 0 -107 0 -108 103 103 102 102 145 0 145 0 -105 -105 -105 -105
-145 -2 -145 -2 140 -3 139 -4 -99 -99 c-92 -92 -103 -100 -140 -101 l-40 -2
33 -6 34 -6 -31 -29 c-17 -17 -31 -34 -31 -40 0 -6 19 9 43 32 l43 42 137 0
c75 0 137 -3 137 -8 0 -4 -44 -51 -98 -105 l-97 -97 -85 -2 -85 -2 79 -3 80
-4 -80 -82 -79 -82 85 83 85 82 145 0 145 0 -105 -105 -105 -105 -122 0 -123
0 0 -110 c0 -79 3 -110 12 -110 9 0 9 -3 0 -12 -22 -22 -12 -32 11 -10 22 21
33 22 167 22 l145 0 -105 -105 -105 -105 -62 0 -63 0 0 -67 0 -67 63 62 63 62
144 0 145 0 -100 -100 -100 -100 -110 -2 -110 -2 103 -5 102 -6 -100 -100
-100 -100 0 -112 0 -113 35 0 c19 0 35 -4 35 -8 0 -4 -16 -23 -35 -42 -33 -32
-35 -37 -35 -102 l0 -68 82 0 83 0 -83 -83 c-62 -63 -82 -89 -82 -110 l0 -27
127 0 127 0 -74 -75 -74 -75 330 0 330 0 74 75 74 75 147 0 146 0 -76 -75 -76
-75 160 0 161 0 74 75 74 75 150 0 150 0 -74 -75 -74 -75 310 0 310 0 74 75
74 75 145 0 145 0 -74 -75 -74 -75 315 0 315 0 74 75 74 75 145 0 145 0 -74
-78 -75 -77 80 78 80 77 145 0 144 0 -74 -75 -74 -75 160 0 160 0 74 75 74 75
147 0 146 0 -76 -75 -76 -75 315 0 316 0 74 75 74 75 145 0 145 0 -74 -77 -75
-78 80 77 80 78 150 0 149 0 -74 -75 -74 -75 160 0 161 0 72 75 73 75 146 0
146 0 -74 -75 -74 -75 160 0 160 0 74 75 74 75 145 0 145 0 -74 -77 -75 -78
80 78 80 77 145 0 144 0 -74 -75 -74 -75 465 0 465 0 74 75 74 75 147 0 147 0
-69 -67 c-38 -36 -69 -71 -69 -77 0 -6 35 24 78 67 l77 77 145 0 144 0 -74
-78 -75 -77 80 78 80 77 150 0 149 0 -74 -75 -74 -75 770 0 770 0 74 75 74 75
145 0 145 0 -74 -75 -74 -75 310 0 310 0 74 75 74 75 147 0 146 0 -76 -75 -76
-75 160 0 161 0 74 75 74 75 150 0 150 0 -74 -75 -74 -75 217 0 217 0 0 80 0
80 -132 0 -133 0 105 105 c85 85 110 105 135 106 27 1 28 2 7 8 l-24 6 21 19
c18 17 21 30 21 108 l0 88 -67 0 -67 0 67 68 c59 59 67 72 67 105 l0 37 -112
0 -113 0 113 112 112 111 0 104 0 103 -45 0 c-25 0 -45 3 -45 7 0 4 21 30 47
58 43 45 42 44 -12 -7 l-61 -58 -144 0 -145 0 105 105 105 105 100 2 100 2
-93 5 -93 6 91 90 90 90 0 159 0 160 -38 -37 -38 -37 -144 0 -145 0 105 105
105 105 77 0 78 0 0 110 0 110 -115 0 c-63 0 -115 3 -115 8 0 17 197 202 215
202 15 0 17 2 6 9 -9 6 -10 11 -2 15 7 5 11 43 11 102 l0 94 -57 0 -57 0 57
58 57 58 0 267 0 267 -37 0 -37 0 37 38 c36 37 37 40 37 110 l0 72 -82 0 -83
0 85 88 85 87 -90 -87 -90 -88 -145 0 -144 0 95 99 94 98 140 4 140 3 -127 3
c-71 2 -128 5 -128 7 0 2 45 48 100 102 62 61 110 100 125 102 21 3 25 9 25
35 l0 31 -28 -27 c-28 -27 -29 -27 -172 -27 l-145 0 105 105 105 105 70 2 70
2 -64 3 -64 4 64 67 64 67 -70 -68 -71 -67 -149 0 -150 0 100 100 100 100 120
2 120 2 -107 3 c-60 2 -108 7 -108 12 0 4 47 54 105 110 l105 102 0 105 0 104
-47 0 -47 0 47 48 47 48 0 159 0 160 -98 -98 -97 -97 -145 0 -145 0 105 105
105 105 137 0 138 0 0 110 0 110 -27 0 -27 0 29 30 c16 17 24 30 17 30 -6 0
-21 -13 -34 -30 l-22 -30 -143 0 c-79 0 -143 3 -143 8 0 4 44 51 98 105 l97
97 80 2 80 2 -74 3 -75 4 75 77 74 77 -80 -77 -80 -78 -145 0 -145 0 100 100
100 100 123 0 123 0 -2 131 c-1 123 -2 129 -18 115 -14 -13 -45 -16 -162 -16
l-144 0 102 102 101 101 64 -2 c34 -1 60 0 58 3 -3 3 -27 6 -53 7 -26 2 -47 5
-47 8 0 3 24 30 52 61 49 51 48 51 -12 -7 l-66 -63 -144 0 -145 0 105 105 105
105 102 0 103 0 0 220 0 220 -30 0 c-38 0 -38 9 0 45 28 27 30 34 30 102 l0
73 -77 0 -78 0 80 80 c43 44 77 82 74 84 -3 3 -43 -33 -89 -79 l-85 -85 -145
0 -145 0 100 100 100 100 135 2 135 2 -122 3 c-68 2 -123 7 -123 11 0 4 44 51
98 105 69 68 105 97 122 98 21 0 22 2 7 8 -17 6 -17 8 -3 20 13 11 16 34 16
107 l0 94 -57 0 -57 0 57 58 c53 54 57 61 57 105 l0 47 -107 0 -108 0 110 110
110 110 -150 0 -150 0 100 100 c98 99 100 100 150 102 l50 1 -42 4 c-24 2 -43
6 -43 9 0 2 18 20 40 40 l40 36 0 161 0 162 -93 -93 -92 -92 -143 0 c-78 0
-142 3 -142 7 0 4 39 47 87 95 l88 88 -465 0 -465 0 -95 -95 -95 -95 -145 0
-145 0 95 95 95 95 -160 0 -160 0 -95 -95 -95 -95 -145 0 -145 0 95 95 95 95
-160 0 -160 0 -95 -95 -95 -95 -145 0 -145 0 95 95 95 95 -310 0 -310 0 -95
-95 -95 -95 -165 0 -165 0 95 95 95 95 -160 0 -160 0 -95 -95 -95 -95 -145 0
-145 0 90 90 c49 49 87 92 84 94 -3 3 -47 -37 -99 -89 l-95 -95 -145 0 -145 0
95 95 95 95 -160 0 -160 0 -95 -95 -95 -95 -145 0 -145 0 95 95 95 95 -315 0
-315 0 -95 -95 -95 -95 -145 0 -145 0 95 95 95 95 -160 0 -160 0 -95 -95 -95
-95 -145 0 -145 0 95 95 95 95 -310 0 -310 0 -95 -95 -95 -95 -145 0 -145 0
95 95 95 95 -465 0 -465 0 -95 -95 -95 -95 -150 0 -150 0 95 95 95 95 -160 0
-160 0 -95 -95 -95 -95 -145 0 -145 0 95 95 95 95 -310 0 -310 0 -95 -95 -95
-95 -145 0 -145 0 95 95 95 95 -160 0 -160 0 -95 -95 -95 -95 -145 0 -145 0
95 95 95 95 -160 0 -160 0 -95 -95 -95 -95 -142 0 c-79 0 -143 2 -143 6 0 3
38 43 85 89 47 47 85 87 85 90 0 3 -69 5 -153 5 l-152 0 -95 -95 -95 -95 -150
0 -150 0 95 95 95 95 -278 0 -277 0 0 -100z m640 -108 c0 -5 -44 -52 -99 -105
l-98 -97 -142 0 c-77 0 -141 3 -141 7 0 4 44 52 97 105 l98 98 142 0 c79 0
143 -4 143 -8z m1130 -97 l-105 -105 -142 0 c-79 0 -143 2 -143 3 0 2 46 50
103 105 l102 102 145 0 145 0 -105 -105z m610 0 l-105 -105 -145 0 -145 0 105
105 105 105 145 0 145 0 -105 -105z m910 0 l-105 -105 -137 0 c-76 0 -138 3
-138 7 0 4 44 52 97 105 l98 98 145 0 145 0 -105 -105z m920 0 l-105 -105
-145 0 -145 0 105 105 105 105 145 0 145 0 -105 -105z m309 0 l-106 -105 -141
0 c-78 0 -142 3 -142 7 0 4 44 52 97 105 l98 98 150 0 150 0 -106 -105z m301
0 l-105 -105 -137 0 c-76 0 -138 3 -138 7 0 4 44 52 97 105 l98 98 145 0 145
0 -105 -105z m610 0 l-105 -105 -137 0 c-76 0 -138 3 -138 7 0 4 44 52 97 105
l98 98 145 0 145 0 -105 -105z m310 0 l-105 -105 -145 0 -145 0 105 105 105
105 145 0 145 0 -105 -105z m610 0 l-105 -105 -145 0 -145 0 105 105 105 105
145 0 145 0 -105 -105z m910 0 l-105 -105 -137 0 c-76 0 -138 3 -138 7 0 4 44
52 97 105 l98 98 145 0 145 0 -105 -105z m710 97 c0 -5 -44 -52 -99 -105 l-98
-97 -142 0 c-77 0 -141 3 -141 8 0 4 44 51 98 105 l98 97 142 0 c78 0 142 -4
142 -8z m1470 -97 l-105 -105 -137 0 c-76 0 -138 3 -138 7 0 4 44 52 97 105
l98 98 145 0 145 0 -105 -105z m920 0 l-105 -105 -145 0 -145 0 105 105 105
105 145 0 145 0 -105 -105z m610 0 l-105 -105 -145 0 -145 0 105 105 105 105
145 0 145 0 -105 -105z m610 0 l-105 -105 -145 0 -145 0 105 105 105 105 145
0 145 0 -105 -105z m400 97 c0 -5 -41 -48 -90 -97 -50 -48 -89 -89 -87 -91 2
-2 48 42 102 96 l100 100 145 0 145 0 -105 -105 -104 -105 -293 0 c-161 0
-293 4 -293 8 0 3 44 51 97 104 l98 98 142 0 c79 0 143 -4 143 -8z m-11035
-312 l-100 -100 -150 0 -150 0 100 100 100 100 150 0 150 0 -100 -100z m910 0
l-100 -100 -145 0 -145 0 100 100 100 100 145 0 145 0 -100 -100z m310 0
l-100 -100 -145 0 -145 0 100 100 100 100 145 0 145 0 -100 -100z m300 0
l-100 -100 -145 0 -145 0 100 100 100 100 145 0 145 0 -100 -100z m310 0
l-100 -100 -145 0 -145 0 100 100 100 100 145 0 145 0 -100 -100z m300 0
l-101 -100 -144 0 -145 0 100 100 100 100 146 0 146 0 -102 -100z m620 0
l-100 -100 -150 0 -150 0 100 100 100 100 150 0 150 0 -100 -100z m910 0
l-100 -100 -145 0 -145 0 100 100 100 100 145 0 145 0 -100 -100z m310 0
l-100 -100 -144 0 -145 0 95 99 94 98 150 2 150 1 -100 -100z m610 0 l-100
-100 -145 0 -145 0 100 100 100 100 145 0 145 0 -100 -100z m610 0 l-100 -100
-145 0 -145 0 100 100 100 100 145 0 145 0 -100 -100z m610 0 l-100 -100 -145
0 -145 0 100 100 100 100 145 0 145 0 -100 -100z m303 0 l-103 -100 -145 0
-145 0 100 100 100 100 148 0 148 0 -103 -100z m617 0 l-100 -100 -150 0 -150
0 100 100 100 100 150 0 150 0 -100 -100z m300 0 l-100 -100 -145 0 -145 0
100 100 100 100 145 0 145 0 -100 -100z m610 0 l-100 -100 -145 0 -145 0 100
100 100 100 145 0 145 0 -100 -100z m350 0 l-100 -100 -165 0 -165 0 100 100
100 100 165 0 165 0 -100 -100z m300 0 l-100 -100 -145 0 -145 0 100 100 100
100 145 0 145 0 -100 -100z m310 0 l-100 -100 -144 0 -145 0 95 99 94 98 150
2 150 1 -100 -100z m300 0 l-100 -100 -145 0 -145 0 100 100 100 100 145 0
145 0 -100 -100z m1220 0 l-101 -100 -144 0 -145 0 100 100 100 100 146 0 146
0 -102 -100z m610 0 l-101 -100 -144 0 -145 0 100 100 100 100 146 0 146 0
-102 -100z m-11245 -215 l-105 -105 -145 0 -145 0 105 105 105 105 145 0 145
0 -105 -105z m610 0 l-105 -105 -145 0 -145 0 105 105 105 105 145 0 145 0
-105 -105z m400 98 c0 -4 -44 -52 -97 -105 l-98 -98 -145 0 -145 0 105 105
105 105 137 0 c76 0 138 -3 138 -7z m520 -98 l-105 -105 -145 0 -145 0 105
105 105 105 145 0 145 0 -105 -105z m1220 0 l-105 -105 -145 0 -145 0 105 105
105 105 145 0 145 0 -105 -105z m1010 98 c0 -4 -44 -52 -97 -105 l-98 -98
-142 0 c-79 0 -143 3 -143 7 0 4 44 52 97 105 l98 98 142 0 c79 0 143 -3 143
-7z m610 0 c0 -4 -44 -52 -97 -105 l-98 -98 -142 0 c-79 0 -143 2 -143 3 0 2
46 50 103 105 l102 102 138 0 c75 0 137 -3 137 -7z m820 -98 l-105 -105 -145
0 -145 0 105 105 105 105 145 0 145 0 -105 -105z m310 0 l-105 -105 -145 0
-145 0 105 105 105 105 145 0 145 0 -105 -105z m610 0 l-105 -105 -145 0 -145
0 105 105 105 105 145 0 145 0 -105 -105z m1010 98 c0 -4 -44 -52 -97 -105
l-98 -98 -142 0 c-79 0 -143 3 -143 7 0 4 44 52 97 105 l98 98 142 0 c79 0
143 -3 143 -7z m820 -98 l-105 -105 -145 0 -145 0 105 105 105 105 145 0 145
0 -105 -105z m440 98 c0 -4 -44 -52 -97 -105 l-98 -98 -165 0 -165 0 105 105
105 105 157 0 c87 0 158 -3 158 -7z m610 0 c0 -4 -44 -52 -97 -105 l-98 -98
-142 0 c-79 0 -143 2 -143 3 0 2 46 50 103 105 l102 102 138 0 c75 0 137 -3
137 -7z m1130 -98 l-105 -105 -145 0 -145 0 105 105 105 105 145 0 145 0 -105
-105z m300 0 l-105 -105 -137 0 c-76 0 -138 3 -138 7 0 4 44 52 97 105 l98 98
145 0 145 0 -105 -105z m1530 0 l-105 -105 -145 0 -145 0 105 105 105 105 145
0 145 0 -105 -105z m-11855 -215 l-100 -100 -150 0 -150 0 100 100 100 100
150 0 150 0 -100 -100z m1220 0 l-100 -100 -145 0 -145 0 100 100 100 100 145
0 145 0 -100 -100z m910 0 l-100 -100 -145 0 -145 0 100 100 100 100 145 0
145 0 -100 -100z m620 0 l-100 -100 -150 0 -150 0 100 100 100 100 150 0 150
0 -100 -100z m610 0 l-100 -100 -150 0 -150 0 100 100 100 100 150 0 150 0
-100 -100z m610 0 l-100 -100 -146 0 -146 0 101 100 101 100 145 0 145 0 -100
-100z m300 0 l-100 -100 -145 0 -145 0 100 100 100 100 145 0 145 0 -100 -100z
m310 0 l-100 -100 -145 0 -145 0 100 100 100 100 145 0 145 0 -100 -100z m300
0 l-100 -100 -145 0 -145 0 100 100 100 100 145 0 145 0 -100 -100z m610 0
l-100 -100 -145 0 -145 0 100 100 100 100 145 0 145 0 -100 -100z m610 0
l-101 -100 -144 0 -145 0 100 100 100 100 146 0 146 0 -102 -100z m620 0
l-100 -100 -150 0 -150 0 100 100 100 100 150 0 150 0 -100 -100z m610 0
l-100 -100 -146 0 -146 0 101 100 101 100 145 0 145 0 -100 -100z m950 0
l-100 -100 -145 0 -145 0 100 100 100 100 145 0 145 0 -100 -100z m1220 0
l-100 -100 -145 0 -145 0 100 100 100 100 145 0 145 0 -100 -100z m610 0
l-100 -100 -145 0 -145 0 100 100 100 100 145 0 145 0 -100 -100z m620 0 l-99
-100 -150 0 -151 0 100 100 100 100 149 0 149 0 -98 -100z m610 0 l-100 -100
-150 0 -150 0 100 100 100 100 150 0 150 0 -100 -100z m300 0 l-100 -100 -145
0 -145 0 100 100 100 100 145 0 145 0 -100 -100z m-11555 -215 l-105 -105
-145 0 -145 0 105 105 105 105 145 0 145 0 -105 -105z m400 98 c0 -4 -44 -52
-97 -105 l-98 -98 -145 0 -145 0 105 105 105 105 137 0 c76 0 138 -3 138 -7z
m210 -98 l-105 -105 -145 0 -145 0 105 105 105 105 145 0 145 0 -105 -105z
m1010 98 c0 -4 -44 -52 -97 -105 l-98 -98 -145 0 -145 0 105 105 105 105 137
0 c76 0 138 -3 138 -7z m310 4 c0 -2 -46 -50 -102 -105 l-103 -102 -145 0
-145 0 105 105 105 105 142 0 c79 0 143 -2 143 -3z m300 -4 c0 -4 -44 -52 -97
-105 l-98 -98 -145 0 -145 0 105 105 105 105 137 0 c76 0 138 -3 138 -7z m520
-98 l-105 -105 -145 0 -145 0 105 105 105 105 145 0 145 0 -105 -105z m610 0
l-105 -105 -145 0 -145 0 105 105 105 105 145 0 145 0 -105 -105z m1010 98 c0
-4 -44 -52 -97 -105 l-98 -98 -145 0 -145 0 105 105 105 105 137 0 c76 0 138
-3 138 -7z m610 0 c0 -4 -44 -52 -97 -105 l-98 -98 -145 0 -145 0 105 105 105
105 137 0 c76 0 138 -3 138 -7z m210 -98 l-105 -105 -145 0 -145 0 105 105
105 105 145 0 145 0 -105 -105z m400 98 c0 -4 -44 -52 -97 -105 l-98 -98 -145
0 -145 0 105 105 105 105 137 0 c76 0 138 -3 138 -7z m520 -98 l-105 -105
-145 0 -145 0 105 105 105 105 145 0 145 0 -105 -105z m400 98 c0 -4 -44 -52
-97 -105 l-98 -98 -142 0 c-79 0 -143 3 -143 7 0 4 44 52 97 105 l98 98 142 0
c79 0 143 -3 143 -7z m610 0 c0 -4 -44 -52 -97 -105 l-98 -98 -142 0 c-79 0
-143 2 -143 3 0 2 46 50 103 105 l102 102 138 0 c75 0 137 -3 137 -7z m860
-98 l-105 -105 -145 0 -145 0 105 105 105 105 145 0 145 0 -105 -105z m610 0
l-105 -105 -145 0 -145 0 105 105 105 105 145 0 145 0 -105 -105z m400 98 c0
-4 -44 -52 -97 -105 l-98 -98 -145 0 -145 0 105 105 105 105 137 0 c76 0 138
-3 138 -7z m210 -98 l-105 -105 -145 0 -145 0 105 105 105 105 145 0 145 0
-105 -105z m710 102 c0 -2 -46 -50 -102 -105 l-103 -102 -145 0 -145 0 105
105 105 105 142 0 c79 0 143 -2 143 -3z m610 -1 c0 -2 -40 -43 -90 -92 -49
-48 -90 -92 -90 -98 0 -6 46 35 103 92 l102 102 145 0 145 0 -105 -105 -104
-105 -300 0 -300 0 104 105 105 105 142 0 c79 0 143 -2 143 -4z m610 -3 c0 -4
-44 -52 -97 -105 l-98 -98 -142 0 c-79 0 -143 3 -143 7 0 4 44 52 97 105 l98
98 142 0 c79 0 143 -3 143 -7z m-10740 -318 l-105 -105 -137 0 c-76 0 -138 3
-138 7 0 4 44 52 97 105 l98 98 145 0 145 0 -105 -105z m310 0 l-105 -105
-145 -2 -145 -2 140 -3 139 -4 -99 -99 -100 -100 -145 0 -145 0 210 210 210
210 145 0 145 0 -105 -105z m300 0 l-105 -105 -137 0 c-76 0 -138 3 -138 7 0
4 44 52 97 105 l98 98 145 0 145 0 -105 -105z m1320 97 c0 -5 -45 -52 -99
-105 l-100 -97 -140 0 c-78 0 -141 3 -141 7 0 4 44 52 97 105 l98 98 142 0
c79 0 143 -4 143 -8z m820 -97 l-105 -105 -137 0 c-76 0 -138 3 -138 7 0 4 44
52 97 105 l98 98 145 0 145 0 -105 -105z m610 0 l-105 -105 -137 0 c-76 0
-138 3 -138 7 0 4 44 52 97 105 l98 98 145 0 145 0 -105 -105z m610 0 l-105
-105 -137 0 c-76 0 -138 3 -138 7 0 4 44 52 97 105 l98 98 145 0 145 0 -105
-105z m310 0 l-105 -105 -145 0 -145 0 105 105 105 105 145 0 145 0 -105 -105z
m300 0 l-105 -105 -137 0 c-76 0 -138 3 -138 7 0 4 44 52 97 105 l98 98 145 0
145 0 -105 -105z m610 0 l-105 -105 -137 0 c-76 0 -138 3 -138 7 0 4 44 52 97
105 l98 98 145 0 145 0 -105 -105z m619 0 l-106 -105 -141 0 c-78 0 -142 3
-142 7 0 4 44 52 97 105 l98 98 150 0 150 0 -106 -105z m610 0 l-106 -105
-141 0 c-78 0 -142 3 -142 6 0 3 46 50 103 104 l102 100 145 0 145 0 -106
-105z m301 0 l-105 -105 -137 0 c-76 0 -138 3 -138 7 0 4 44 52 97 105 l98 98
145 0 145 0 -105 -105z m349 0 l-106 -105 -161 0 c-89 0 -162 2 -162 3 0 2 46
50 103 105 l102 102 165 0 165 0 -106 -105z m301 0 l-105 -105 -137 0 c-76 0
-138 3 -138 7 0 4 44 52 97 105 l98 98 145 0 145 0 -105 -105z m309 0 l-106
-105 -141 0 c-78 0 -142 2 -142 3 0 2 46 50 103 105 l102 102 145 0 145 0
-106 -105z m1521 0 l-105 -105 -137 0 c-76 0 -138 3 -138 7 0 4 44 52 97 105
l98 98 145 0 145 0 -105 -105z m310 0 l-105 -105 -145 0 -145 0 105 105 105
105 145 0 145 0 -105 -105z m400 102 c0 -2 -46 -49 -102 -105 l-102 -102 -138
0 c-76 0 -138 3 -138 7 0 4 44 52 97 105 l98 98 142 0 c79 0 143 -1 143 -3z
m415 -207 l-210 -210 -150 0 -150 0 101 101 101 101 139 1 139 1 -127 3 c-71
2 -128 7 -128 11 0 3 44 51 97 104 l98 98 149 0 150 0 -209 -210z m1015 105
l-105 -105 -137 0 c-76 0 -138 3 -138 7 0 4 44 52 97 105 l98 98 145 0 145 0
-105 -105z m309 0 l-106 -105 -144 0 -144 0 105 105 105 105 145 0 145 0 -106
-105z m-12164 -215 l-100 -100 -144 0 -145 0 95 98 94 99 145 4 c80 2 147 3
149 1 3 -1 -40 -48 -94 -102z m1220 0 l-100 -100 -145 0 -145 0 100 100 99 99
141 3 c77 2 142 2 144 0 3 -1 -40 -48 -94 -102z m305 5 l-105 -105 -145 0
-145 0 100 100 99 99 146 4 c80 1 147 4 150 5 2 1 -42 -45 -100 -103z m1225
-5 l-100 -100 -150 0 -150 0 100 100 99 99 146 3 c80 2 147 2 149 0 3 -1 -40
-48 -94 -102z m299 -1 l-99 -99 -145 0 -145 0 102 103 103 102 142 -3 142 -3
-100 -100z m311 1 l-100 -100 -144 0 -145 0 95 98 94 99 145 4 c80 2 147 3
149 1 3 -1 -40 -48 -94 -102z m610 0 l-100 -100 -145 0 -145 0 100 100 99 99
141 3 c77 2 142 2 144 0 3 -1 -40 -48 -94 -102z m1220 0 l-100 -100 -145 0
-145 0 100 100 99 99 141 3 c77 2 142 2 144 0 3 -1 -40 -48 -94 -102z m919 -1
l-99 -99 -150 0 -150 0 105 103 105 102 144 -3 145 -3 -100 -100z m1560 0
l-99 -99 -145 0 -145 0 102 103 103 102 142 -3 142 -3 -100 -100z m1531 1
l-100 -100 -145 0 -145 0 100 100 99 99 141 3 c77 2 142 2 144 0 3 -1 -40 -48
-94 -102z m1037 100 l282 0 -99 -100 -100 -100 -145 0 -145 0 95 95 c52 52 90
95 84 95 -6 0 -52 -43 -103 -95 l-94 -95 -146 0 -146 0 107 106 c59 58 111
103 117 100 5 -4 137 -6 293 -6z m-9327 -100 l-100 -100 -145 0 -145 0 100
100 100 100 145 0 145 0 -100 -100z m920 0 l-100 -100 -145 0 -145 0 100 100
100 100 145 0 145 0 -100 -100z m303 0 l-103 -100 -145 0 -145 0 100 100 100
100 148 0 148 0 -103 -100z m2747 0 l-100 -100 -145 0 -145 0 100 100 100 100
145 0 145 0 -100 -100z m920 0 l-100 -100 -145 0 -145 0 100 100 100 100 145
0 145 0 -100 -100z m2480 0 l-100 -100 -145 0 -145 0 100 100 100 100 145 0
145 0 -100 -100z m1220 0 l-101 -100 -144 0 -145 0 100 100 100 100 146 0 146
0 -102 -100z m1530 0 l-100 -100 -145 0 -145 0 100 100 100 100 145 0 145 0
-100 -100z m610 0 l-100 -100 -145 0 -145 0 100 100 100 100 145 0 145 0 -100
-100z m-11555 -215 l-105 -105 -145 0 -145 0 105 105 105 105 145 0 145 0
-105 -105z m310 0 l-105 -105 -145 0 -145 0 105 105 105 105 145 0 145 0 -105
-105z m1220 0 l-105 -105 -145 0 -145 0 105 105 105 105 145 0 145 0 -105
-105z m610 0 l-105 -105 -145 0 -145 0 105 105 105 105 145 0 145 0 -105 -105z
m400 97 c0 -5 -44 -52 -99 -105 l-98 -97 -142 0 c-77 0 -141 3 -141 7 0 4 44
52 97 105 l98 98 142 0 c79 0 143 -4 143 -8z m820 -97 l-105 -105 -145 0 -145
0 105 105 105 105 145 0 145 0 -105 -105z m310 0 l-105 -105 -145 0 -145 0
105 105 105 105 145 0 145 0 -105 -105z m610 0 l-105 -105 -145 0 -145 0 105
105 105 105 145 0 145 0 -105 -105z m610 0 l-105 -105 -145 0 -145 0 105 105
105 105 145 0 145 0 -105 -105z m1220 0 l-105 -105 -145 0 -145 0 105 105 105
105 145 0 145 0 -105 -105z m400 98 c0 -4 -44 -52 -97 -105 l-98 -98 -142 0
c-79 0 -143 3 -143 7 0 4 44 52 97 105 l98 98 142 0 c79 0 143 -3 143 -7z
m210 -98 l-105 -105 -145 0 -145 0 105 105 105 105 145 0 145 0 -105 -105z
m440 97 c0 -5 -44 -52 -99 -105 l-98 -97 -162 0 c-88 0 -161 2 -161 3 0 2 46
50 103 105 l102 102 158 0 c86 0 157 -4 157 -8z m520 -97 l-105 -105 -142 0
c-79 0 -143 2 -143 3 0 2 46 50 103 105 l102 102 145 0 145 0 -105 -105z m610
0 l-105 -105 -145 0 -145 0 105 105 105 105 145 0 145 0 -105 -105z m300 0
l-105 -105 -137 0 c-76 0 -138 3 -138 7 0 4 44 52 97 105 l98 98 145 0 145 0
-105 -105z m310 0 l-105 -105 -145 0 -145 0 105 105 105 105 145 0 145 0 -105
-105z m1010 102 c0 -2 -46 -50 -102 -105 l-103 -102 -137 0 c-76 0 -138 3
-138 7 0 4 44 52 97 105 l98 98 142 0 c79 0 143 -2 143 -3z m610 -5 c0 -5 -44
-52 -99 -105 l-98 -97 -142 0 c-77 0 -141 3 -141 7 0 4 44 52 97 105 l98 98
142 0 c79 0 143 -4 143 -8z m610 1 c0 -4 -44 -52 -97 -105 l-98 -98 -142 0
c-79 0 -143 4 -143 8 0 5 44 52 99 105 l98 97 142 0 c77 0 141 -3 141 -7z
m520 -98 l-105 -105 -145 0 -145 0 105 105 105 105 145 0 145 0 -105 -105z
m300 0 l-105 -105 -145 0 -145 0 105 105 105 105 145 0 145 0 -105 -105z
m-11555 -215 l-100 -100 -145 0 -145 0 100 100 100 100 145 0 145 0 -100 -100z
m310 0 l-100 -100 -145 0 -145 0 100 100 100 100 145 0 145 0 -100 -100z m610
0 l-100 -100 -145 0 -145 0 100 100 100 100 145 0 145 0 -100 -100z m610 0
l-100 -100 -145 0 -145 0 95 95 c52 52 90 95 84 95 -6 0 -52 -43 -103 -95
l-94 -95 -146 0 -146 0 100 100 99 100 300 0 300 0 -99 -100z m610 0 l-100
-100 -145 0 -145 0 100 100 100 100 145 0 145 0 -100 -100z m310 0 l-100 -100
-149 0 -150 0 100 100 99 99 150 1 150 0 -100 -100z m910 0 l-100 -100 -145 0
-145 0 100 100 100 100 145 0 145 0 -100 -100z m610 0 l-100 -100 -145 0 -145
0 100 100 100 100 145 0 145 0 -100 -100z m310 0 l-100 -100 -145 0 -145 0
100 100 100 100 145 0 145 0 -100 -100z m610 0 l-100 -100 -145 0 -145 0 100
100 100 100 145 0 145 0 -100 -100z m610 0 l-100 -100 -145 0 -145 0 100 100
100 100 145 0 145 0 -100 -100z m310 0 l-100 -100 -150 0 -150 0 100 100 100
100 150 0 150 0 -100 -100z m950 0 l-100 -100 -145 0 -145 0 100 100 100 100
145 0 145 0 -100 -100z m610 0 l-100 -100 -145 0 -145 0 100 100 100 100 145
0 145 0 -100 -100z m920 0 l-100 -100 -145 0 -145 0 100 100 100 100 145 0
145 0 -100 -100z m610 0 l-100 -100 -145 0 -145 0 100 100 100 100 145 0 145
0 -100 -100z m610 0 l-100 -100 -145 0 -145 0 100 100 100 100 145 0 145 0
-100 -100z m610 0 l-100 -100 -145 0 -145 0 100 100 100 100 145 0 145 0 -100
-100z m310 0 l-100 -100 -150 0 -150 0 100 100 100 100 150 0 150 0 -100 -100z
m910 0 l-100 -100 -145 0 -145 0 100 100 100 100 145 0 145 0 -100 -100z m310
0 l-100 -100 -145 0 -145 0 100 100 100 100 145 0 145 0 -100 -100z m-11465
-117 c0 -4 -44 -52 -97 -105 l-98 -98 -145 0 -145 0 105 105 105 105 137 0
c76 0 138 -3 138 -7z m210 -98 l-105 -105 -145 0 -145 0 105 105 105 105 145
0 145 0 -105 -105z m400 98 c0 -4 -44 -52 -97 -105 l-98 -98 -145 0 -145 0
105 105 105 105 137 0 c76 0 138 -3 138 -7z m920 0 c0 -4 -44 -52 -97 -105
l-98 -98 -142 0 c-79 0 -143 4 -143 8 0 5 44 52 99 105 l98 97 142 0 c77 0
141 -3 141 -7z m610 -1 c0 -3 -44 -51 -97 -104 l-98 -98 -142 0 c-79 0 -143 4
-143 8 0 5 41 48 90 97 50 48 89 89 87 91 -2 2 -48 -42 -102 -96 l-100 -100
-145 0 -145 0 105 105 104 105 293 0 c161 0 293 -4 293 -8z m820 -97 l-105
-105 -145 0 -145 0 105 105 105 105 145 0 145 0 -105 -105z m400 98 c0 -4 -44
-52 -97 -105 l-98 -98 -145 0 -145 0 105 105 105 105 137 0 c76 0 138 -3 138
-7z m210 -98 l-105 -105 -145 0 -145 0 105 105 105 105 145 0 145 0 -105 -105z
m710 102 c0 -2 -46 -50 -102 -105 l-103 -102 -145 0 -145 0 105 105 105 105
142 0 c79 0 143 -2 143 -3z m610 -5 c0 -5 -44 -52 -99 -105 l-98 -97 -142 0
c-77 0 -141 4 -141 8 0 5 44 52 99 105 l98 97 142 0 c77 0 141 -4 141 -8z
m820 -97 l-105 -105 -145 0 -145 0 105 105 105 105 145 0 145 0 -105 -105z
m1050 97 c0 -3 -44 -51 -97 -104 l-98 -98 -142 0 c-79 0 -143 4 -143 8 0 5 41
48 91 97 49 48 89 89 87 91 -2 2 -49 -42 -103 -96 l-100 -100 -145 0 -145 0
105 105 104 105 293 0 c161 0 293 -4 293 -8z m210 -97 l-105 -105 -145 0 -145
0 105 105 105 105 145 0 145 0 -105 -105z m610 0 l-105 -105 -145 0 -145 0
105 105 105 105 145 0 145 0 -105 -105z m400 98 c0 -4 -44 -52 -97 -105 l-98
-98 -145 0 -145 0 105 105 105 105 137 0 c76 0 138 -3 138 -7z m210 -98 l-105
-105 -145 0 -145 0 105 105 105 105 145 0 145 0 -105 -105z m710 102 c0 -2
-46 -50 -102 -105 l-103 -102 -145 0 -145 0 105 105 105 105 142 0 c79 0 143
-2 143 -3z m210 -102 l-105 -105 -145 0 -145 0 105 105 105 105 145 0 145 0
-105 -105z m610 0 l-105 -105 -145 0 -145 0 105 105 105 105 145 0 145 0 -105
-105z m400 98 c0 -4 -44 -52 -97 -105 l-98 -98 -142 0 c-79 0 -143 4 -143 8 0
5 44 52 99 105 l98 97 142 0 c77 0 141 -3 141 -7z m820 -98 l-105 -105 -145 0
-145 0 105 105 105 105 145 0 145 0 -105 -105z m-11560 -220 l-105 -105 -137
0 c-76 0 -138 3 -138 7 0 4 44 52 97 105 l98 98 145 0 145 0 -105 -105z m1230
10 c-52 -52 -92 -97 -89 -99 3 -3 50 40 104 94 l100 100 145 0 145 0 -105
-105 -104 -105 -293 1 c-161 1 -293 4 -293 7 0 4 44 51 97 104 l98 98 145 0
145 0 -95 -95z m609 -10 l-106 -105 -141 0 c-78 0 -142 3 -142 7 0 4 44 52 97
105 l98 98 150 0 150 0 -106 -105z m806 -105 l-210 -210 -145 0 -145 0 102
102 101 101 139 -2 c76 -1 135 0 133 3 -3 3 -61 6 -128 7 -67 0 -122 4 -122 7
0 4 44 51 97 104 l98 98 145 0 145 0 -210 -210z m414 105 l-106 -105 -141 0
c-78 0 -142 2 -142 3 0 2 46 50 103 105 l102 102 145 0 145 0 -106 -105z m301
0 l-105 -105 -137 0 c-76 0 -138 3 -138 7 0 4 44 52 97 105 l98 98 145 0 145
0 -105 -105z m1425 -105 l-210 -210 -145 0 -145 0 101 101 101 101 134 1 134
1 -122 3 c-68 2 -123 7 -123 11 0 3 44 51 97 104 l98 98 145 0 145 0 -210
-210z m414 105 l-106 -105 -141 0 c-78 0 -142 3 -142 7 0 4 44 52 97 105 l98
98 150 0 150 0 -106 -105z m301 0 l-105 -105 -137 0 c-76 0 -138 3 -138 7 0 4
44 52 97 105 l98 98 145 0 145 0 -105 -105z m310 0 l-106 -104 -142 0 c-78 0
-142 3 -142 7 0 4 44 51 97 104 l98 98 150 0 150 0 -105 -105z m950 0 l-105
-105 -137 0 c-76 0 -138 3 -138 7 0 4 44 52 97 105 l98 98 145 0 145 0 -105
-105z m309 0 l-106 -105 -141 0 c-78 0 -142 3 -142 6 0 4 44 51 97 105 l97 99
150 0 151 0 -106 -105z m610 0 l-106 -105 -144 0 -144 0 105 105 105 105 145
0 145 0 -106 -105z m612 1 l-104 -104 -140 -1 c-78 -1 -143 -4 -146 -7 -3 -3
56 -4 132 -2 75 2 137 1 137 -2 0 -2 -44 -49 -97 -102 l-98 -98 -145 0 -145 0
210 210 210 210 145 0 145 0 -104 -104z m909 -1 l-105 -105 -137 0 c-76 0
-138 3 -138 7 0 4 44 52 97 105 l98 98 145 0 145 0 -105 -105z m620 0 l-106
-104 -142 0 c-78 0 -142 3 -142 7 0 4 44 51 97 104 l98 98 150 0 150 0 -105
-105z m609 0 l-106 -105 -141 0 c-78 0 -142 3 -142 7 0 4 44 52 97 105 l98 98
150 0 150 0 -106 -105z m611 1 l-105 -104 -142 -1 c-79 -1 -143 0 -143 2 0 2
46 50 103 105 l102 102 145 0 145 0 -105 -104z m609 -1 l-106 -105 -144 0
-144 0 105 105 105 105 145 0 145 0 -106 -105z m301 0 l-105 -106 -137 2 c-76
0 -138 4 -138 7 0 4 44 51 97 104 l98 98 145 0 145 0 -105 -105z m-11760 -113
c0 -4 -44 -51 -97 -104 l-98 -98 -145 0 -145 0 105 105 105 106 138 -2 c75 0
137 -4 137 -7z m610 0 c0 -4 -44 -51 -97 -104 l-98 -98 -145 0 -145 0 105 105
105 106 138 -2 c75 0 137 -4 137 -7z m310 2 c0 -1 -46 -47 -102 -102 l-103
-102 -145 0 -145 0 105 103 105 102 143 0 c78 0 142 0 142 -1z m1220 -2 c0 -4
-44 -51 -97 -104 l-98 -98 -150 0 -150 0 106 106 107 105 141 -2 c77 0 141 -4
141 -7z m1220 0 c0 -4 -44 -51 -97 -104 l-98 -98 -145 0 -145 0 105 105 105
106 138 -2 c75 0 137 -4 137 -7z m210 -97 l-105 -105 -145 0 -145 0 106 105
106 105 144 0 144 0 -105 -105z m710 101 c0 -2 -46 -49 -102 -104 l-103 -102
-145 0 -145 0 106 106 107 105 141 -2 c77 0 141 -2 141 -3z m1220 -6 c0 -2
-44 -49 -97 -102 l-98 -98 -150 0 -150 0 105 103 105 102 143 0 c78 0 142 -2
142 -5z m300 2 c0 -4 -44 -51 -97 -104 l-98 -98 -145 0 -145 0 105 105 105
106 138 -2 c75 0 137 -4 137 -7z m2390 -97 l-105 -105 -145 0 -145 0 106 105
106 105 144 0 144 0 -105 -105z m1010 97 c0 -4 -44 -51 -97 -104 l-98 -98
-145 0 -145 0 105 105 105 106 138 -2 c75 0 137 -4 137 -7z m310 -2 c0 -2 -44
-49 -97 -102 l-98 -98 -150 0 -150 0 105 103 105 102 143 0 c78 0 142 -2 142
-5z m300 2 c0 -4 -44 -51 -97 -104 l-98 -98 -145 0 -145 0 105 105 105 106
138 -2 c75 0 137 -4 137 -7z m610 1 c0 -4 -44 -52 -97 -105 l-98 -98 -145 0
-145 0 106 105 106 105 136 0 c76 0 137 -3 137 -7z m310 -3 c0 -2 -44 -49 -97
-102 l-98 -98 -145 0 -145 0 103 103 102 102 140 0 c77 0 140 -2 140 -5z m300
3 c0 -4 -44 -52 -97 -105 l-98 -98 -145 0 -145 0 106 105 106 105 136 0 c76 0
137 -3 137 -7z m488 -3 l127 0 -100 -100 -100 -100 -145 0 -145 0 105 105 c61
62 110 103 118 100 8 -3 71 -5 140 -5z m-4553 -100 l-100 -100 -145 0 -145 0
100 100 100 100 145 0 145 0 -100 -100z m-6975 -215 l-105 -105 -137 0 c-76 0
-138 3 -138 7 0 4 44 52 97 105 l98 98 145 0 145 0 -105 -105z m310 0 l-105
-105 -145 0 -145 0 105 105 105 105 145 0 145 0 -105 -105z m610 0 l-105 -105
-145 0 -145 0 105 105 105 105 145 0 145 0 -105 -105z m400 98 c0 -4 -44 -52
-97 -105 l-98 -98 -142 0 c-79 0 -143 3 -143 7 0 4 44 52 97 105 l98 98 142 0
c79 0 143 -3 143 -7z m210 -98 l-105 -105 -145 0 -145 0 105 105 105 105 145
0 145 0 -105 -105z m400 98 c0 -4 -44 -52 -97 -105 l-98 -98 -142 0 c-79 0
-143 3 -143 7 0 4 44 52 97 105 l98 98 142 0 c79 0 143 -3 143 -7z m520 -98
l-105 -105 -142 0 c-79 0 -143 2 -143 3 0 2 46 50 103 105 l102 102 145 0 145
0 -105 -105z m300 0 l-105 -105 -145 0 -145 0 105 105 105 105 145 0 145 0
-105 -105z m610 0 l-105 -105 -137 0 c-76 0 -138 3 -138 7 0 4 44 52 97 105
l98 98 145 0 145 0 -105 -105z m610 0 l-105 -105 -137 0 c-76 0 -138 3 -138 7
0 4 44 52 97 105 l98 98 145 0 145 0 -105 -105z m1320 98 c0 -4 -44 -52 -97
-105 l-98 -98 -142 0 c-79 0 -143 3 -143 7 0 4 44 52 97 105 l98 98 142 0 c79
0 143 -3 143 -7z m650 -1 c0 -5 -44 -52 -99 -105 l-98 -97 -162 0 c-88 0 -161
2 -161 3 0 2 46 50 103 105 l102 102 158 0 c86 0 157 -4 157 -8z m610 1 c0 -4
-44 -52 -97 -105 l-98 -98 -142 0 c-79 0 -143 4 -143 8 0 5 44 52 99 105 l98
97 142 0 c77 0 141 -3 141 -7z m210 -98 l-105 -105 -145 0 -145 0 105 105 105
105 145 0 145 0 -105 -105z m310 0 l-105 -105 -145 0 -145 0 105 105 105 105
145 0 145 0 -105 -105z m610 0 l-105 -105 -145 0 -145 0 105 105 105 105 145
0 145 0 -105 -105z m610 0 l-105 -105 -145 0 -145 0 105 105 105 105 145 0
145 0 -105 -105z m300 0 l-105 -105 -137 0 c-76 0 -138 3 -138 7 0 4 44 52 97
105 l98 98 145 0 145 0 -105 -105z m1840 0 l-105 -105 -142 0 c-79 0 -143 2
-143 3 0 2 46 50 103 105 l102 102 145 0 145 0 -105 -105z m610 0 l-105 -105
-145 0 -145 0 105 105 105 105 145 0 145 0 -105 -105z m610 0 l-105 -105 -145
0 -145 0 105 105 105 105 145 0 145 0 -105 -105z m300 0 l-105 -105 -137 0
c-76 0 -138 3 -138 7 0 4 44 52 97 105 l98 98 145 0 145 0 -105 -105z m-12165
-215 l-100 -100 -145 0 -145 0 100 100 100 100 145 0 145 0 -100 -100z m310 0
l-100 -100 -145 0 -145 0 100 100 100 100 145 0 145 0 -100 -100z m915 0
l-102 -100 -146 0 -147 0 100 100 100 100 148 0 149 0 -102 -100z m1225 0
l-100 -100 -146 0 -146 0 101 100 101 100 145 0 145 0 -100 -100z m910 0
l-100 -100 -145 0 -145 0 100 100 100 100 145 0 145 0 -100 -100z m920 0
l-100 -100 -145 0 -145 0 100 100 100 100 145 0 145 0 -100 -100z m610 0
l-100 -100 -145 0 -145 0 100 100 100 100 145 0 145 0 -100 -100z m310 0
l-100 -100 -150 0 -150 0 100 100 100 100 150 0 150 0 -100 -100z m650 0
l-100 -100 -166 0 -166 0 101 100 101 100 165 0 165 0 -100 -100z m300 0
l-100 -100 -145 0 -145 0 100 100 100 100 145 0 145 0 -100 -100z m610 0
l-100 -100 -145 0 -145 0 100 100 100 100 145 0 145 0 -100 -100z m1220 0
l-100 -100 -145 0 -145 0 100 100 100 100 145 0 145 0 -100 -100z m310 0
l-100 -100 -145 0 -145 0 100 100 100 100 145 0 145 0 -100 -100z m610 0
l-100 -100 -145 0 -145 0 100 100 100 100 145 0 145 0 -100 -100z m610 0
l-100 -100 -145 0 -145 0 100 100 100 100 145 0 145 0 -100 -100z m310 0
l-100 -100 -150 0 -150 0 100 100 100 100 150 0 150 0 -100 -100z m300 0
l-100 -100 -145 0 -145 0 100 100 100 100 145 0 145 0 -100 -100z m920 0
l-100 -100 -145 0 -145 0 100 100 100 100 145 0 145 0 -100 -100z m910 0
l-100 -100 -145 0 -145 0 100 100 100 100 145 0 145 0 -100 -100z m-11765
-117 c0 -4 -44 -52 -97 -105 l-98 -98 -145 0 -145 0 105 105 105 105 137 0
c76 0 138 -3 138 -7z m520 -98 l-105 -105 -145 0 -145 0 105 105 105 105 145
0 145 0 -105 -105z m610 0 l-105 -105 -145 0 -145 0 105 105 105 105 145 0
145 0 -105 -105z m400 98 c0 -4 -44 -52 -97 -105 l-98 -98 -142 0 c-79 0 -143
4 -143 8 0 5 44 52 99 105 l98 97 142 0 c77 0 141 -3 141 -7z m610 0 c0 -4
-44 -52 -97 -105 l-98 -98 -145 0 -145 0 105 105 105 105 137 0 c76 0 138 -3
138 -7z m610 0 c0 -4 -44 -52 -97 -105 l-98 -98 -145 0 -145 0 105 105 105
105 137 0 c76 0 138 -3 138 -7z m610 0 c0 -4 -44 -52 -97 -105 l-98 -98 -145
0 -145 0 105 105 105 105 137 0 c76 0 138 -3 138 -7z m520 -98 l-105 -105
-145 0 -145 0 105 105 105 105 145 0 145 0 -105 -105z m400 101 c0 -3 -46 -50
-102 -105 l-103 -101 -145 0 -145 0 105 105 105 105 142 0 c79 0 143 -2 143
-4z m1260 -4 c0 -5 -44 -52 -99 -105 l-98 -97 -162 0 c-88 0 -161 2 -161 3 0
2 46 50 103 105 l102 102 158 0 c86 0 157 -4 157 -8z m610 1 c0 -4 -44 -52
-97 -105 l-98 -98 -142 0 c-79 0 -143 4 -143 8 0 5 44 52 99 105 l98 97 142 0
c77 0 141 -3 141 -7z m610 0 c0 -4 -44 -52 -97 -105 l-98 -98 -145 0 -145 0
105 105 105 105 137 0 c76 0 138 -3 138 -7z m820 -98 l-105 -105 -145 0 -145
0 105 105 105 105 145 0 145 0 -105 -105z m610 0 l-105 -105 -145 0 -145 0
105 105 105 105 145 0 145 0 -105 -105z m710 98 c0 -5 -44 -52 -98 -105 l-98
-98 -150 0 -149 0 105 105 105 105 142 0 c79 0 143 -3 143 -7z m1220 0 c0 -4
-44 -52 -97 -105 l-98 -98 -142 0 c-79 0 -143 2 -143 3 0 2 46 50 103 105
l102 102 138 0 c75 0 137 -3 137 -7z m610 0 c0 -4 -44 -52 -97 -105 l-98 -98
-145 0 -145 0 105 105 105 105 137 0 c76 0 138 -3 138 -7z m210 -98 l-105
-105 -145 0 -145 0 105 105 105 105 145 0 145 0 -105 -105z m610 0 l-105 -105
-145 0 -145 0 105 105 105 105 145 0 145 0 -105 -105z m-11556 -216 l-101
-101 -134 -1 -134 -1 128 -3 c70 -2 127 -5 127 -7 0 -2 -46 -49 -102 -104
l-103 -102 -145 0 -144 0 209 210 210 210 145 0 145 0 -101 -101z m706 93 c0
-5 -44 -52 -98 -105 l-98 -96 -142 0 c-78 0 -142 3 -142 7 0 4 44 51 97 104
l98 98 142 0 c79 0 143 -4 143 -8z m520 -97 l-106 -104 -142 0 c-78 0 -142 3
-142 7 0 4 44 51 97 104 l98 98 150 0 150 0 -105 -105z m304 4 l-100 -100
-142 -2 c-78 -1 -142 0 -142 3 0 2 44 49 97 102 l98 98 145 0 145 0 -101 -101z
m610 0 l-101 -101 -134 -1 -134 -1 130 -3 129 -4 -104 -104 -105 -105 -145 0
-145 0 210 210 210 210 145 0 145 0 -101 -101z m501 -109 l-210 -210 -145 0
-145 0 210 210 210 210 145 0 145 0 -210 -210z m716 106 l-104 -105 -139 0
c-76 0 -138 3 -138 7 0 4 44 51 97 104 l98 98 145 0 145 0 -104 -104z m1233 3
l-101 -101 -139 -1 -139 -1 128 -3 c70 -2 127 -7 127 -11 0 -3 -44 -51 -97
-104 l-98 -98 -149 0 -150 0 209 210 210 210 150 0 150 0 -101 -101z m297 -3
l-104 -105 -139 0 c-76 0 -138 3 -138 7 0 4 44 51 97 104 l98 98 145 0 145 0
-104 -104z m650 0 l-104 -105 -139 0 c-76 0 -138 3 -138 7 0 4 44 51 97 104
l98 98 145 0 145 0 -104 -104z m313 3 l-101 -101 -139 -1 -139 -1 128 -3 c70
-2 127 -7 127 -11 0 -3 -44 -51 -97 -104 l-98 -98 -149 0 -150 0 209 210 210
210 150 0 150 0 -101 -101z m297 -3 l-104 -105 -139 0 c-76 0 -138 3 -138 7 0
4 44 51 97 104 l98 98 145 0 145 0 -104 -104z m504 -106 l-210 -210 -145 0
-145 0 210 210 210 210 145 0 145 0 -210 -210z m719 109 l-101 -101 -134 -1
-134 -1 130 -3 129 -4 -104 -104 -105 -105 -145 0 -145 0 210 210 210 210 145
0 145 0 -101 -101z m306 -3 l-106 -105 -144 0 -144 0 105 105 104 104 145 0
145 0 -105 -104z m1223 2 l-103 -103 -142 3 -142 3 100 100 99 99 145 0 145 0
-102 -102z m307 -3 l-106 -104 -142 0 c-78 0 -142 3 -142 7 0 4 44 51 97 104
l98 98 150 0 150 0 -105 -105z m1220 2 l-105 -102 -140 3 -141 3 101 99 100
100 145 0 145 0 -105 -103z m612 1 l-102 -103 -140 -2 c-77 -1 -140 1 -140 5
0 4 44 51 97 104 l98 98 145 0 145 0 -103 -102z m299 -2 l-104 -105 -139 0
c-76 0 -138 3 -138 7 0 4 44 51 97 104 l98 98 145 0 145 0 -104 -104z m613 3
l-101 -101 -134 -1 -134 -1 128 -3 c70 -2 127 -5 127 -7 0 -2 -46 -49 -102
-104 l-103 -102 -145 0 -145 0 210 210 210 210 145 0 145 0 -101 -101z
m-11764 -117 c0 -4 -44 -51 -97 -104 l-98 -98 -145 0 -145 0 105 105 105 106
138 -2 c75 0 137 -4 137 -7z m610 0 c0 -4 -44 -51 -97 -104 l-98 -98 -145 0
-145 0 105 105 105 106 138 -2 c75 0 137 -4 137 -7z m920 0 c0 -4 -44 -51 -97
-104 l-98 -98 -145 0 -145 0 105 105 105 106 138 -2 c75 0 137 -4 137 -7z
m610 0 c0 -4 -44 -51 -97 -104 l-98 -98 -145 0 -145 0 105 105 105 106 138 -2
c75 0 137 -4 137 -7z m1220 0 c0 -4 -44 -51 -97 -104 l-98 -98 -145 0 -145 0
105 105 105 106 138 -2 c75 0 137 -4 137 -7z m310 4 c0 -1 -46 -48 -102 -104
l-102 -102 -145 0 -146 0 106 106 107 105 141 -2 c77 0 141 -2 141 -3z m300
-3 c0 -4 -44 -52 -97 -105 l-98 -98 -145 0 -145 0 105 105 105 105 137 0 c76
0 138 -3 138 -7z m960 -1 c0 -4 -44 -51 -97 -104 l-98 -98 -162 0 c-90 0 -163
1 -163 3 0 2 46 49 102 105 l103 103 157 -2 c87 0 158 -4 158 -7z m1220 0 c0
-4 -44 -51 -97 -104 l-98 -98 -145 0 -145 0 105 105 105 106 138 -2 c75 0 137
-4 137 -7z m1430 -97 l-105 -105 -145 0 -145 0 106 105 106 105 144 0 144 0
-105 -105z m400 97 c0 -4 -44 -51 -97 -104 l-98 -98 -145 0 -145 0 105 105
105 106 138 -2 c75 0 137 -4 137 -7z m610 1 c0 -4 -44 -52 -97 -105 l-98 -98
-145 0 -145 0 105 105 105 105 137 0 c76 0 138 -3 138 -7z m610 0 c0 -4 -44
-52 -97 -105 l-98 -98 -145 0 -145 0 106 105 106 105 136 0 c76 0 137 -3 137
-7z m310 -2 c0 -3 -44 -50 -98 -104 l-98 -98 -142 3 -141 3 101 103 102 103
138 -2 c76 0 138 -4 138 -8z m610 2 c0 -4 -44 -52 -97 -105 l-98 -98 -145 0
-145 0 105 105 105 105 137 0 c76 0 138 -3 138 -7z m210 -98 l-105 -105 -145
0 -145 0 106 105 106 105 144 0 144 0 -105 -105z m1010 97 c0 -4 -44 -51 -97
-104 l-98 -98 -145 0 -145 0 105 105 105 106 138 -2 c75 0 137 -4 137 -7z
m-11250 -220 c0 -5 -44 -52 -99 -105 l-98 -97 -142 0 c-77 0 -141 3 -141 7 0
4 44 52 97 105 l98 98 142 0 c79 0 143 -4 143 -8z m1130 -97 l-105 -105 -142
0 c-79 0 -143 2 -143 4 0 2 41 43 90 92 50 48 90 92 90 98 0 6 -46 -35 -103
-92 l-102 -102 -145 0 -145 0 105 105 104 105 300 0 300 0 -104 -105z m610 0
l-105 -105 -145 0 -145 0 105 105 105 105 145 0 145 0 -105 -105z m610 0
l-105 -105 -145 0 -145 0 105 105 105 105 145 0 145 0 -105 -105z m300 0
l-105 -105 -137 0 c-76 0 -138 3 -138 7 0 4 44 52 97 105 l98 98 145 0 145 0
-105 -105z m610 0 l-105 -105 -137 0 c-76 0 -138 3 -138 7 0 4 44 52 97 105
l98 98 145 0 145 0 -105 -105z m920 0 l-105 -105 -145 0 -145 0 105 105 105
105 145 0 145 0 -105 -105z m440 97 c0 -5 -44 -52 -99 -105 l-98 -97 -162 0
c-88 0 -161 3 -161 7 0 4 44 51 98 105 l97 98 163 0 c89 0 162 -4 162 -8z
m1130 -97 l-105 -105 -142 0 c-79 0 -143 2 -143 3 0 2 46 50 103 105 l102 102
145 0 145 0 -105 -105z m610 0 l-105 -105 -145 0 -145 0 105 105 105 105 145
0 145 0 -105 -105z m300 0 l-105 -105 -137 0 c-76 0 -138 3 -138 7 0 4 44 52
97 105 l98 98 145 0 145 0 -105 -105z m920 0 l-105 -105 -145 0 -145 0 105
105 105 105 145 0 145 0 -105 -105z m400 102 c0 -2 -46 -49 -102 -105 l-102
-102 -138 0 c-76 0 -138 3 -138 7 0 4 44 52 97 105 l98 98 142 0 c79 0 143 -1
143 -3z m610 -5 c0 -5 -44 -52 -99 -105 l-98 -97 -142 0 c-77 0 -141 3 -141 7
0 4 44 52 97 105 l98 98 142 0 c79 0 143 -4 143 -8z m520 -97 l-105 -105 -142
0 c-79 0 -143 2 -143 5 0 3 46 50 102 105 l103 100 145 0 145 0 -105 -105z
m610 0 l-105 -105 -145 0 -145 0 105 105 105 105 145 0 145 0 -105 -105z m610
0 l-105 -105 -145 0 -145 0 105 105 105 105 145 0 145 0 -105 -105z m610 0
l-105 -105 -145 0 -145 0 105 105 105 105 145 0 145 0 -105 -105z m610 0
l-105 -105 -145 0 -145 0 105 105 105 105 145 0 145 0 -105 -105z m-11858
-215 l-102 -100 -147 0 -148 0 100 100 100 100 149 0 150 0 -102 -100z m613 0
l-100 -100 -150 0 -150 0 100 100 100 100 150 0 150 0 -100 -100z m610 0
l-100 -100 -145 0 -146 0 95 98 96 99 150 1 150 2 -100 -100z m300 0 l-100
-100 -145 0 -145 0 100 100 100 100 145 0 145 0 -100 -100z m610 0 l-100 -100
-145 0 -145 0 100 100 100 100 145 0 145 0 -100 -100z m610 0 l-100 -100 -145
0 -145 0 100 100 100 100 145 0 145 0 -100 -100z m310 0 l-100 -100 -145 0
-145 0 100 100 100 100 145 0 145 0 -100 -100z m300 0 l-101 -100 -144 0 -145
0 100 100 100 100 146 0 146 0 -102 -100z m620 0 l-100 -100 -150 0 -150 0
100 100 100 100 150 0 150 0 -100 -100z m300 0 l-100 -100 -145 0 -145 0 100
100 100 100 145 0 145 0 -100 -100z m650 0 l-100 -100 -145 0 -145 0 100 100
100 100 145 0 145 0 -100 -100z m610 0 l-100 -100 -145 0 -145 0 100 100 100
100 145 0 145 0 -100 -100z m1530 0 l-100 -100 -145 0 -145 0 100 100 100 100
145 0 145 0 -100 -100z m300 0 l-100 -100 -145 0 -145 0 100 100 100 100 145
0 145 0 -100 -100z m920 0 l-100 -100 -145 0 -145 0 95 95 c52 52 90 95 84 95
-6 0 -52 -43 -103 -95 l-94 -95 -146 0 -146 0 100 100 99 100 300 0 300 0 -99
-100z m610 0 l-100 -100 -145 0 -145 0 100 100 100 100 145 0 145 0 -100 -100z
m610 0 l-100 -100 -145 0 -145 0 100 100 100 100 145 0 145 0 -100 -100z m920
0 l-100 -100 -145 0 -145 0 100 100 100 100 145 0 145 0 -100 -100z m300 0
l-100 -100 -145 0 -145 0 100 100 100 100 145 0 145 0 -100 -100z m610 0
l-101 -100 -144 0 -145 0 100 100 100 100 146 0 146 0 -102 -100z m620 0
l-100 -100 -150 0 -150 0 100 100 100 100 150 0 150 0 -100 -100z m-12075
-114 c0 -2 -40 -43 -90 -92 -49 -48 -90 -92 -90 -98 0 -6 46 35 103 92 l102
102 145 0 145 0 -105 -105 -104 -105 -293 0 c-161 0 -293 4 -293 8 0 3 44 51
97 104 l98 98 142 0 c79 0 143 -2 143 -4z m610 -3 c0 -4 -44 -52 -97 -105
l-98 -98 -142 0 c-79 0 -143 3 -143 7 0 4 44 52 97 105 l98 98 142 0 c79 0
143 -3 143 -7z m210 -98 l-105 -105 -145 0 -145 0 105 105 105 105 145 0 145
0 -105 -105z m1010 98 c0 -4 -44 -52 -97 -105 l-98 -98 -145 0 -145 0 105 105
105 105 137 0 c76 0 138 -3 138 -7z m210 -98 l-105 -105 -145 0 -145 0 105
105 105 105 145 0 145 0 -105 -105z m610 0 l-105 -105 -145 0 -145 0 105 105
105 105 145 0 145 0 -105 -105z m920 0 l-105 -105 -145 0 -145 0 105 105 105
105 145 0 145 0 -105 -105z m1050 102 c0 -2 -46 -50 -102 -105 l-103 -102
-157 0 c-87 0 -158 4 -158 8 0 5 44 52 99 105 l98 97 162 0 c88 0 161 -2 161
-3z m610 -4 c0 -4 -44 -52 -97 -105 l-98 -98 -142 0 c-79 0 -143 4 -143 8 0 5
44 52 99 105 l98 97 142 0 c77 0 141 -3 141 -7z m610 0 c0 -4 -44 -52 -97
-105 l-98 -98 -142 0 c-79 0 -143 2 -143 3 0 2 46 50 103 105 l102 102 138 0
c75 0 137 -3 137 -7z m610 0 c0 -4 -44 -52 -97 -105 l-98 -98 -145 0 -145 0
105 105 105 105 137 0 c76 0 138 -3 138 -7z m210 -98 l-105 -105 -145 0 -145
0 105 105 105 105 145 0 145 0 -105 -105z m1930 98 c0 -4 -44 -52 -97 -105
l-98 -98 -142 0 c-79 0 -143 4 -143 8 0 5 44 52 99 105 l98 97 142 0 c77 0
141 -3 141 -7z m210 -98 l-105 -105 -145 0 -145 0 105 105 105 105 145 0 145
0 -105 -105z m610 0 l-105 -105 -145 0 -145 0 105 105 105 105 145 0 145 0
-105 -105z m610 0 l-105 -105 -145 0 -145 0 105 105 105 105 145 0 145 0 -105
-105z m310 0 l-105 -105 -145 0 -145 0 105 105 105 105 145 0 145 0 -105 -105z
m610 0 l-105 -105 -145 0 -145 0 105 105 105 105 145 0 145 0 -105 -105z m610
0 l-105 -105 -145 0 -145 0 105 105 105 105 145 0 145 0 -105 -105z m400 97
c0 -5 -44 -52 -99 -105 l-98 -97 -142 0 c-77 0 -141 3 -141 7 0 4 44 52 97
105 l98 98 142 0 c79 0 143 -4 143 -8z m-11955 -312 l-100 -100 -145 0 -145 0
100 100 100 100 145 0 145 0 -100 -100z m920 0 l-100 -100 -149 0 -149 0 99
100 99 100 150 0 150 0 -100 -100z m300 0 l-100 -100 -145 0 -145 0 100 100
100 100 145 0 145 0 -100 -100z m310 0 l-100 -100 -145 0 -145 0 100 100 100
100 145 0 145 0 -100 -100z m910 0 l-100 -100 -145 0 -145 0 100 100 100 100
145 0 145 0 -100 -100z m310 0 l-100 -100 -145 0 -145 0 100 100 100 100 145
0 145 0 -100 -100z m300 0 l-100 -100 -145 0 -145 0 100 100 100 100 145 0
145 0 -100 -100z m620 0 l-100 -100 -150 0 -150 0 100 100 100 100 150 0 150
0 -100 -100z m641 0 l-100 -100 -165 0 -166 0 100 100 100 100 165 0 166 0
-100 -100z m619 0 l-100 -100 -150 0 -150 0 100 100 100 100 150 0 150 0 -100
-100z m300 0 l-100 -100 -145 0 -145 0 100 100 100 100 145 0 145 0 -100 -100z
m610 0 l-100 -100 -145 0 -145 0 100 100 100 100 145 0 145 0 -100 -100z m920
0 l-100 -100 -145 0 -145 0 100 100 100 100 145 0 145 0 -100 -100z m300 0
l-100 -100 -145 0 -145 0 100 100 100 100 145 0 145 0 -100 -100z m310 0
l-100 -100 -145 0 -145 0 100 100 100 100 145 0 145 0 -100 -100z m304 1 l-94
-98 -150 -2 -150 -1 100 100 100 100 144 0 145 0 -95 -99z m306 -1 l-100 -100
-145 0 -145 0 100 100 100 100 145 0 145 0 -100 -100z m610 0 l-100 -100 -145
0 -145 0 100 100 100 100 145 0 145 0 -100 -100z m310 0 l-100 -100 -150 0
-150 0 100 100 100 100 150 0 150 0 -100 -100z m610 0 l-100 -100 -146 0 -146
0 101 100 101 100 145 0 145 0 -100 -100z m910 0 l-100 -100 -145 0 -145 0
100 100 100 100 145 0 145 0 -100 -100z m310 0 l-100 -100 -145 0 -145 0 100
100 100 100 145 0 145 0 -100 -100z m300 0 l-100 -100 -145 0 -145 0 100 100
100 100 145 0 145 0 -100 -100z m310 0 l-100 -100 -145 0 -145 0 100 100 100
100 145 0 145 0 -100 -100z m610 0 l-100 -100 -145 0 -145 0 100 100 100 100
145 0 145 0 -100 -100z m-11155 -118 c0 -3 -44 -51 -97 -104 l-98 -98 -142 0
c-79 0 -143 4 -143 8 0 5 41 48 90 97 50 48 89 89 87 91 -2 2 -48 -42 -102
-96 l-100 -100 -145 0 -145 0 105 105 104 105 293 0 c161 0 293 -4 293 -8z
m820 -97 l-105 -105 -145 0 -145 0 105 105 105 105 145 0 145 0 -105 -105z
m400 98 c0 -4 -44 -52 -97 -105 l-98 -98 -145 0 -145 0 105 105 105 105 137 0
c76 0 138 -3 138 -7z m210 -98 l-105 -105 -145 0 -145 0 105 105 105 105 145
0 145 0 -105 -105z m1320 98 c0 -4 -44 -52 -97 -105 l-98 -98 -150 0 -150 0
106 105 106 105 141 0 c78 0 142 -3 142 -7z m950 0 c0 -4 -44 -52 -97 -105
l-98 -98 -145 0 -145 0 105 105 105 105 137 0 c76 0 138 -3 138 -7z m310 0 c0
-4 -44 -52 -97 -105 l-98 -98 -142 0 c-79 0 -143 4 -143 8 0 5 44 52 99 105
l98 97 142 0 c77 0 141 -3 141 -7z m820 -98 l-105 -105 -145 0 -145 0 105 105
105 105 145 0 145 0 -105 -105z m610 0 l-105 -105 -145 0 -145 0 105 105 105
105 145 0 145 0 -105 -105z m610 0 l-105 -105 -145 0 -145 0 105 105 105 105
145 0 145 0 -105 -105z m1010 98 c0 -4 -44 -52 -97 -105 l-98 -98 -145 0 -145
0 105 105 105 105 137 0 c76 0 138 -3 138 -7z m310 0 c0 -4 -44 -52 -97 -105
l-98 -98 -150 0 -150 0 106 105 106 105 141 0 c78 0 142 -3 142 -7z m610 0 c0
-4 -44 -52 -97 -105 l-98 -98 -142 0 c-79 0 -143 4 -143 8 0 5 44 52 99 105
l98 97 142 0 c77 0 141 -3 141 -7z m610 0 c0 -4 -44 -52 -97 -105 l-98 -98
-145 0 -145 0 105 105 105 105 137 0 c76 0 138 -3 138 -7z m610 0 c0 -4 -44
-52 -97 -105 l-98 -98 -145 0 -145 0 105 105 105 105 137 0 c76 0 138 -3 138
-7z m210 -98 l-105 -105 -145 0 -145 0 105 105 105 105 145 0 145 0 -105 -105z
m710 102 c0 -2 -46 -50 -102 -105 l-103 -102 -145 0 -145 0 105 105 105 105
142 0 c79 0 143 -2 143 -3z m610 -4 c0 -4 -44 -52 -97 -105 l-98 -98 -150 0
-150 0 106 105 106 105 141 0 c78 0 142 -3 142 -7z m-11350 -318 l-105 -105
-137 0 c-76 0 -138 3 -138 7 0 4 44 52 97 105 l98 98 145 0 145 0 -105 -105z
m309 0 l-106 -105 -141 0 c-78 0 -142 3 -142 7 0 4 44 52 97 105 l98 98 150 0
150 0 -106 -105z m301 0 l-105 -105 -137 0 c-76 0 -138 3 -138 7 0 4 44 52 97
105 l98 98 145 0 145 0 -105 -105z m920 0 l-105 -105 -145 0 -145 0 105 105
105 105 145 0 145 0 -105 -105z m1220 0 l-105 -105 -145 0 -145 0 105 105 105
105 145 0 145 0 -105 -105z m400 97 c0 -5 -44 -52 -99 -105 l-98 -97 -142 0
c-77 0 -141 3 -141 7 0 4 44 52 97 105 l98 98 142 0 c79 0 143 -4 143 -8z
m650 4 c0 -2 -40 -43 -90 -92 -49 -48 -90 -92 -90 -98 0 -6 46 35 103 92 l102
102 145 0 145 0 -105 -105 -104 -104 -313 -1 c-172 0 -313 4 -313 8 0 3 44 51
97 104 l98 98 162 0 c90 0 163 -2 163 -4z m820 -101 l-105 -105 -137 0 c-76 0
-138 3 -138 7 0 4 44 52 97 105 l98 98 145 0 145 0 -105 -105z m309 0 l-106
-105 -141 0 c-78 0 -142 3 -142 6 0 4 44 51 97 105 l97 99 150 0 151 0 -106
-105z m301 0 l-105 -105 -137 0 c-76 0 -138 3 -138 7 0 4 44 52 97 105 l98 98
145 0 145 0 -105 -105z m610 0 l-105 -105 -137 0 c-76 0 -138 3 -138 7 0 4 44
52 97 105 l98 98 145 0 145 0 -105 -105z m310 0 l-105 -105 -145 0 -145 0 105
105 105 105 145 0 145 0 -105 -105z m610 0 l-105 -105 -145 0 -145 0 105 105
105 105 145 0 145 0 -105 -105z m610 0 l-105 -105 -145 0 -145 0 105 105 105
105 145 0 145 0 -105 -105z m1220 0 l-105 -105 -137 0 c-76 0 -138 3 -138 7 0
4 44 52 97 105 l98 98 145 0 145 0 -105 -105z m610 0 l-105 -105 -137 0 c-76
0 -138 3 -138 7 0 4 44 52 97 105 l98 98 145 0 145 0 -105 -105z m310 0 l-105
-105 -145 0 -145 0 105 105 105 105 145 0 145 0 -105 -105z m610 0 l-105 -105
-145 0 -145 0 105 105 105 105 145 0 145 0 -105 -105z m1220 0 l-105 -105
-137 0 c-76 0 -138 3 -138 7 0 4 44 52 97 105 l98 98 145 0 145 0 -105 -105z
m-10635 -215 l-100 -100 -145 0 -145 0 100 100 100 100 145 0 145 0 -100 -100z
m300 0 l-100 -100 -145 0 -145 0 100 100 100 100 145 0 145 0 -100 -100z m610
0 l-100 -100 -145 0 -145 0 100 100 100 100 145 0 145 0 -100 -100z m310 0
l-100 -100 -145 0 -145 0 100 100 100 100 145 0 145 0 -100 -100z m610 0
l-100 -100 -145 0 -145 0 100 100 100 100 145 0 145 0 -100 -100z m950 0
l-101 -100 -164 0 -165 0 100 100 100 100 166 0 166 0 -102 -100z m620 0
l-100 -100 -150 0 -150 0 100 100 100 100 150 0 150 0 -100 -100z m910 0
l-100 -100 -145 0 -145 0 100 100 100 100 145 0 145 0 -100 -100z m310 0
l-100 -100 -145 0 -145 0 100 100 100 100 145 0 145 0 -100 -100z m610 0
l-100 -100 -145 0 -145 0 100 100 100 100 145 0 145 0 -100 -100z m910 0
l-101 -100 -144 0 -145 0 100 100 100 100 146 0 146 0 -102 -100z m620 0
l-100 -100 -150 0 -150 0 100 100 100 100 150 0 150 0 -100 -100z m300 0
l-100 -100 -145 0 -145 0 100 100 100 100 145 0 145 0 -100 -100z m920 0
l-100 -100 -145 0 -145 0 100 100 100 100 145 0 145 0 -100 -100z m1520 0
l-101 -100 -144 0 -145 0 100 100 100 100 146 0 146 0 -102 -100z m620 0 l-99
-100 -150 0 -151 0 100 100 100 100 149 0 149 0 -98 -100z m610 0 l-100 -100
-150 0 -150 0 100 100 100 100 150 0 150 0 -100 -100z m300 0 l-100 -100 -145
0 -145 0 100 100 100 100 145 0 145 0 -100 -100z m-11765 -117 c0 -4 -44 -52
-97 -105 l-98 -98 -142 0 c-79 0 -143 3 -143 7 0 4 44 52 97 105 l98 98 142 0
c79 0 143 -3 143 -7z m210 -98 l-105 -105 -145 0 -145 0 105 105 105 105 145
0 145 0 -105 -105z m400 98 c0 -4 -44 -52 -97 -105 l-98 -98 -142 0 c-79 0
-143 2 -143 3 0 2 46 50 103 105 l102 102 138 0 c75 0 137 -3 137 -7z m520
-98 l-105 -105 -145 0 -145 0 105 105 105 105 145 0 145 0 -105 -105z m300 0
l-105 -105 -145 0 -145 0 105 105 105 105 145 0 145 0 -105 -105z m610 0
l-105 -105 -137 0 c-76 0 -138 3 -138 7 0 4 44 52 97 105 l98 98 145 0 145 0
-105 -105z m310 0 l-105 -105 -145 0 -145 0 105 105 105 105 145 0 145 0 -105
-105z m400 97 c0 -5 -44 -52 -99 -105 l-98 -97 -142 0 c-77 0 -141 3 -141 7 0
4 44 52 97 105 l98 98 142 0 c79 0 143 -4 143 -8z m1260 0 c0 -5 -44 -52 -99
-105 l-98 -97 -142 0 c-77 0 -141 3 -141 7 0 4 44 52 97 105 l98 98 142 0 c79
0 143 -4 143 -8z m820 -97 l-105 -105 -145 0 -145 0 105 105 105 105 145 0
145 0 -105 -105z m610 0 l-105 -105 -145 0 -145 0 105 105 105 105 145 0 145
0 -105 -105z m310 0 l-105 -105 -145 0 -145 0 105 105 105 105 145 0 145 0
-105 -105z m610 0 l-105 -105 -145 0 -145 0 105 105 105 105 145 0 145 0 -105
-105z m1010 97 c0 -5 -44 -52 -99 -105 l-98 -97 -142 0 c-77 0 -141 3 -141 7
0 4 44 52 97 105 l98 98 142 0 c79 0 143 -4 143 -8z m610 1 c0 -4 -44 -52 -97
-105 l-98 -98 -142 0 c-79 0 -143 3 -143 7 0 4 44 52 97 105 l98 98 142 0 c79
0 143 -3 143 -7z m210 -98 l-105 -105 -145 0 -145 0 105 105 105 105 145 0
145 0 -105 -105z m400 98 c0 -4 -44 -52 -97 -105 l-98 -98 -142 0 c-79 0 -143
2 -143 3 0 2 46 50 103 105 l102 102 138 0 c75 0 137 -3 137 -7z m520 -98
l-105 -105 -145 0 -145 0 105 105 105 105 145 0 145 0 -105 -105z m300 0
l-105 -105 -145 0 -145 0 105 105 105 105 145 0 145 0 -105 -105z m310 0
l-105 -105 -145 0 -145 0 105 105 105 105 145 0 145 0 -105 -105z m610 0
l-105 -105 -145 0 -145 0 105 105 105 105 145 0 145 0 -105 -105z m610 0
l-105 -105 -145 0 -145 0 105 105 105 105 145 0 145 0 -105 -105z m400 98 c0
-4 -44 -52 -97 -105 l-98 -98 -142 0 c-79 0 -143 3 -143 7 0 4 44 52 97 105
l98 98 142 0 c79 0 143 -3 143 -7z m-11345 -313 l-100 -100 -145 0 -145 0 100
100 100 100 145 0 145 0 -100 -100z m920 0 l-100 -100 -145 0 -145 0 100 100
100 100 145 0 145 0 -100 -100z m300 0 l-100 -100 -145 0 -145 0 100 100 100
100 145 0 145 0 -100 -100z m920 0 l-100 -100 -145 0 -145 0 100 100 100 100
145 0 145 0 -100 -100z m610 0 l-100 -100 -145 0 -145 0 100 100 100 100 145
0 145 0 -100 -100z m650 0 l-100 -100 -145 0 -145 0 100 100 100 100 145 0
145 0 -100 -100z m920 0 l-100 -100 -150 0 -150 0 100 100 100 100 150 0 150
0 -100 -100z m300 0 l-100 -100 -145 0 -145 0 100 100 100 100 145 0 145 0
-100 -100z m610 0 l-100 -100 -145 0 -145 0 100 100 100 100 145 0 145 0 -100
-100z m610 0 l-100 -100 -145 0 -145 0 100 100 100 100 145 0 145 0 -100 -100z
m610 0 l-101 -100 -144 0 -145 0 100 100 100 100 146 0 146 0 -102 -100z m620
0 l-100 -100 -150 0 -150 0 100 100 100 100 150 0 150 0 -100 -100z m1220 0
l-100 -100 -146 0 -146 0 101 100 101 100 145 0 145 0 -100 -100z m300 0
l-100 -100 -145 0 -145 0 100 100 100 100 145 0 145 0 -100 -100z m310 0
l-100 -100 -145 0 -145 0 100 100 100 100 145 0 145 0 -100 -100z m910 0
l-100 -100 -145 0 -145 0 100 100 100 100 145 0 145 0 -100 -100z m310 0
l-100 -100 -145 0 -145 0 100 100 100 100 145 0 145 0 -100 -100z m610 0
l-100 -100 -145 0 -145 0 100 100 100 100 145 0 145 0 -100 -100z m920 0
l-100 -100 -146 0 -146 0 101 100 101 100 145 0 145 0 -100 -100z m300 0
l-100 -100 -145 0 -145 0 100 100 100 100 145 0 145 0 -100 -100z m-12165
-215 l-105 -105 -145 0 -145 0 105 105 105 105 145 0 145 0 -105 -105z m610 0
l-105 -105 -145 0 -145 0 105 105 105 105 145 0 145 0 -105 -105z m400 98 c0
-4 -44 -52 -97 -105 l-98 -98 -145 0 -145 0 105 105 105 105 137 0 c76 0 138
-3 138 -7z m610 0 c0 -4 -44 -52 -97 -105 l-98 -98 -145 0 -145 0 105 105 105
105 137 0 c76 0 138 -3 138 -7z m920 0 c0 -5 -45 -52 -99 -105 l-98 -98 -149
0 -149 0 105 105 105 105 142 0 c79 0 143 -3 143 -7z m210 -98 l-105 -105
-145 0 -145 0 105 105 105 105 145 0 145 0 -105 -105z m650 0 l-105 -105 -145
0 -145 0 105 105 105 105 145 0 145 0 -105 -105z m1010 98 c0 -4 -44 -52 -97
-105 l-98 -98 -142 0 c-79 0 -143 2 -143 3 0 2 46 50 103 105 l102 102 138 0
c75 0 137 -3 137 -7z m210 -98 l-105 -105 -145 0 -145 0 105 105 105 105 145
0 145 0 -105 -105z m1010 98 c0 -4 -44 -52 -97 -105 l-98 -98 -145 0 -145 0
105 105 105 105 137 0 c76 0 138 -3 138 -7z m210 -98 l-105 -105 -145 0 -145
0 105 105 105 105 145 0 145 0 -105 -105z m310 0 l-105 -105 -145 0 -145 0
105 105 105 105 145 0 145 0 -105 -105z m400 102 c0 -2 -46 -50 -102 -105
l-103 -102 -145 0 -145 0 105 105 105 105 142 0 c79 0 143 -2 143 -3z m610 -4
c0 -4 -44 -52 -97 -105 l-98 -98 -150 0 -150 0 105 105 105 105 142 0 c79 0
143 -3 143 -7z m210 -98 l-105 -105 -145 0 -145 0 105 105 105 105 145 0 145
0 -105 -105z m400 98 c0 -4 -44 -52 -97 -105 l-98 -98 -142 0 c-79 0 -143 3
-143 7 0 4 44 52 97 105 l98 98 142 0 c79 0 143 -3 143 -7z m820 -98 l-105
-105 -145 0 -145 0 105 105 105 105 145 0 145 0 -105 -105z m610 0 l-105 -105
-145 0 -145 0 105 105 105 105 145 0 145 0 -105 -105z m1320 102 c0 -2 -46
-50 -102 -105 l-103 -102 -145 0 -145 0 105 105 105 105 142 0 c79 0 143 -2
143 -3z m610 -4 c0 -4 -44 -52 -97 -105 l-98 -98 -142 0 c-79 0 -143 4 -143 8
0 5 44 52 99 105 l98 97 142 0 c77 0 141 -3 141 -7z m610 -1 c0 -3 -44 -51
-97 -104 l-98 -98 -142 0 c-79 0 -143 2 -143 5 0 3 41 44 90 92 50 47 90 91
90 97 0 6 -46 -35 -103 -92 l-102 -102 -145 0 -145 0 105 105 104 105 293 0
c161 0 293 -4 293 -8z m610 1 c0 -4 -44 -52 -97 -105 l-98 -98 -145 0 -145 0
105 105 105 105 137 0 c76 0 138 -3 138 -7z m-11755 -423 l-210 -210 -145 0
-145 0 210 210 210 210 145 0 145 0 -210 -210z m405 105 l-105 -105 -137 0
c-76 0 -138 3 -138 7 0 4 44 52 97 105 l98 98 145 0 145 0 -105 -105z m610 0
l-105 -105 -137 0 c-76 0 -138 3 -138 7 0 4 44 52 97 105 l98 98 145 0 145 0
-105 -105z m310 0 l-105 -105 -145 0 -145 0 105 105 105 105 145 0 145 0 -105
-105z m399 101 c-2 -3 -96 -97 -208 -210 l-205 -206 -145 0 -146 0 101 101
101 101 139 1 139 1 -127 3 c-71 2 -128 7 -128 11 0 3 44 51 97 104 l98 98
144 0 c79 0 142 -2 140 -4z m650 -1 c-2 -2 -96 -97 -209 -210 l-205 -205 -165
0 -165 0 101 101 101 101 159 1 159 1 -147 3 c-82 2 -148 7 -148 11 0 3 44 51
97 104 l98 98 164 0 c90 0 162 -2 160 -5z m211 -100 l-105 -105 -145 0 -145 0
105 105 105 105 145 0 145 0 -105 -105z m200 -105 l-215 -209 -145 -1 -145 0
101 101 101 101 139 1 139 1 -127 3 c-71 2 -128 7 -128 11 0 3 44 51 97 104
l98 98 150 0 150 -1 -215 -209z m414 109 l-100 -100 -142 -2 c-78 -1 -142 0
-142 3 0 2 44 49 97 102 l98 98 145 0 145 0 -101 -101z m200 -109 l-210 -211
-142 3 -142 3 98 99 98 98 134 1 135 1 -127 3 c-71 2 -128 7 -128 11 0 3 44
51 97 104 l98 98 150 0 149 0 -210 -210z m715 105 l-106 -105 -141 0 c-78 0
-142 2 -142 3 0 2 46 50 103 105 l102 102 145 0 145 0 -106 -105z m506 -105
l-210 -210 -145 0 -145 0 210 210 210 210 145 0 145 0 -210 -210z m1725 202
c0 -5 -44 -52 -99 -105 l-98 -97 -142 0 c-77 0 -141 3 -141 7 0 4 44 52 97
105 l98 98 142 0 c79 0 143 -4 143 -8z m820 -97 l-105 -105 -137 0 c-76 0
-138 3 -138 7 0 4 44 52 97 105 l98 98 145 0 145 0 -105 -105z m610 0 l-105
-105 -137 0 c-76 0 -138 3 -138 7 0 4 44 52 97 105 l98 98 145 0 145 0 -105
-105z m205 -105 l-210 -210 -145 0 -145 0 210 210 210 210 145 0 145 0 -210
-210z m715 105 l-105 -105 -145 0 -145 0 105 105 105 105 145 0 145 0 -105
-105z m610 0 l-105 -105 -145 0 -145 0 105 105 105 105 145 0 145 0 -105 -105z
m310 10 c-52 -52 -92 -97 -89 -99 3 -3 50 40 104 94 l100 100 145 0 145 0
-105 -105 -105 -106 -153 2 -152 2 -108 -106 -107 -107 -145 0 -145 0 101 101
101 101 139 1 139 1 -127 3 c-71 2 -128 7 -128 11 0 3 44 51 97 104 l98 98
145 0 145 0 -95 -95z m1829 -10 l-106 -105 -144 0 -144 0 105 105 105 105 145
0 145 0 -106 -105z m-10849 -115 c0 -2 -44 -49 -97 -102 l-98 -98 -145 0 -145
0 103 103 102 102 140 0 c77 0 140 -2 140 -5z m205 -101 l-101 -99 -145 0
-144 0 105 103 105 102 141 -3 140 -3 -101 -100z m4415 101 c0 -2 -44 -49 -97
-102 l-98 -98 -145 0 -145 0 103 103 102 102 140 0 c77 0 140 -2 140 -5z m210
-95 l-105 -105 -145 0 -145 0 100 100 99 99 146 4 c80 1 147 4 150 5 2 1 -42
-45 -100 -103z m400 95 c0 -2 -44 -49 -97 -102 l-98 -98 -145 0 -145 0 103
103 102 102 140 0 c77 0 140 -2 140 -5z m920 0 c0 -2 -44 -49 -97 -102 l-98
-98 -150 0 -150 0 105 103 105 102 143 0 c78 0 142 -2 142 -5z m610 0 c0 -2
-44 -49 -97 -102 l-98 -98 -145 0 -146 0 102 103 103 102 141 0 c77 0 140 -2
140 -5z m1428 -97 l-103 -103 -145 0 -145 0 105 103 105 102 142 0 143 0 -102
-102z m1527 -3 l-100 -100 -145 0 -145 0 100 100 99 99 141 3 c77 2 142 2 144
0 3 -1 -40 -48 -94 -102z m405 100 c0 -2 -44 -49 -97 -102 l-98 -98 -150 0
-150 0 105 103 105 102 143 0 c78 0 142 -2 142 -5z m205 -100 l-100 -100 -145
0 -145 0 100 100 99 99 141 3 c77 2 142 2 144 0 3 -1 -40 -48 -94 -102z
m-9200 0 l-100 -100 -145 0 -145 0 100 100 100 100 145 0 145 0 -100 -100z
m2480 0 l-100 -100 -145 0 -145 0 100 100 100 100 145 0 145 0 -100 -100z
m7330 0 l-100 -100 -145 0 -145 0 100 100 100 100 145 0 145 0 -100 -100z
m-11855 -215 l-105 -105 -145 0 -145 0 105 105 105 105 145 0 145 0 -105 -105z
m610 0 l-105 -105 -145 0 -145 0 105 105 105 105 145 0 145 0 -105 -105z
m1010 102 c0 -2 -46 -50 -102 -105 l-103 -102 -137 0 c-76 0 -138 3 -138 7 0
4 44 52 97 105 l98 98 142 0 c79 0 143 -2 143 -3z m860 -102 l-105 -105 -145
0 -145 0 105 105 105 105 145 0 145 0 -105 -105z m610 0 l-105 -105 -145 0
-145 0 105 105 105 105 145 0 145 0 -105 -105z m610 0 l-105 -105 -145 0 -145
0 105 105 105 105 145 0 145 0 -105 -105z m310 0 l-105 -105 -142 0 c-79 0
-143 2 -143 3 0 2 46 50 103 105 l102 102 145 0 145 0 -105 -105z m300 0
l-105 -105 -145 0 -145 0 105 105 105 105 145 0 145 0 -105 -105z m610 0
l-105 -105 -145 0 -145 0 105 105 105 105 145 0 145 0 -105 -105z m920 0
l-105 -105 -145 0 -145 0 105 105 105 105 145 0 145 0 -105 -105z m400 101 c0
-2 -40 -43 -90 -92 -49 -48 -90 -92 -90 -98 0 -6 46 35 103 92 l102 102 145 0
145 0 -105 -105 -104 -105 -293 0 c-161 0 -293 4 -293 8 0 3 44 51 97 104 l98
98 142 0 c79 0 143 -2 143 -4z m610 -3 c0 -4 -44 -52 -97 -105 l-98 -98 -142
0 c-79 0 -143 3 -143 7 0 4 44 52 97 105 l98 98 142 0 c79 0 143 -3 143 -7z
m610 0 c0 -4 -44 -52 -97 -105 l-98 -98 -142 0 c-79 0 -143 2 -143 4 0 3 46
50 103 105 l102 101 138 0 c75 0 137 -3 137 -7z m820 -98 l-105 -105 -145 0
-145 0 105 105 105 105 145 0 145 0 -105 -105z m310 0 l-105 -105 -145 0 -145
0 105 105 105 105 145 0 145 0 -105 -105z m610 0 l-105 -105 -145 0 -145 0
105 105 105 105 145 0 145 0 -105 -105z m400 102 c0 -2 -46 -50 -102 -105
l-103 -102 -137 0 c-76 0 -138 3 -138 7 0 4 44 52 97 105 l98 98 142 0 c79 0
143 -2 143 -3z m210 -102 l-105 -105 -145 0 -145 0 105 105 105 105 145 0 145
0 -105 -105z m1010 98 c0 -4 -44 -52 -97 -105 l-98 -98 -142 0 c-79 0 -143 4
-143 8 0 5 44 52 99 105 l98 97 142 0 c77 0 141 -3 141 -7z m520 -98 l-105
-105 -145 0 -145 0 105 105 105 105 145 0 145 0 -105 -105z m-11255 -215
l-100 -100 -145 0 -145 0 100 100 100 100 145 0 145 0 -100 -100z m310 0
l-100 -100 -145 0 -145 0 100 100 100 100 145 0 145 0 -100 -100z m610 0
l-100 -100 -145 0 -145 0 100 100 100 100 145 0 145 0 -100 -100z m610 0
l-100 -100 -145 0 -145 0 100 100 100 100 145 0 145 0 -100 -100z m650 0
l-100 -100 -145 0 -145 0 100 100 100 100 145 0 145 0 -100 -100z m300 0
l-101 -100 -144 0 -145 0 100 100 100 100 146 0 146 0 -102 -100z m620 0
l-100 -100 -149 0 -149 0 99 99 99 99 150 1 150 1 -100 -100z m910 0 l-100
-100 -145 0 -145 0 100 100 100 100 145 0 145 0 -100 -100z m1220 0 l-100
-100 -145 0 -145 0 100 100 100 100 145 0 145 0 -100 -100z m310 0 l-100 -100
-145 0 -145 0 100 100 100 100 145 0 145 0 -100 -100z m610 0 l-100 -100 -145
0 -145 0 100 100 100 100 145 0 145 0 -100 -100z m920 0 l-100 -100 -149 0
-149 0 99 100 99 100 150 0 150 0 -100 -100z m300 0 l-100 -100 -145 0 -145 0
100 100 100 100 145 0 145 0 -100 -100z m310 0 l-100 -100 -145 0 -145 0 100
100 100 100 145 0 145 0 -100 -100z m910 0 l-100 -100 -145 0 -145 0 100 100
100 100 145 0 145 0 -100 -100z m310 0 l-100 -100 -145 0 -145 0 100 100 100
100 145 0 145 0 -100 -100z m920 0 l-100 -100 -150 0 -150 0 100 100 100 100
150 0 150 0 -100 -100z m300 0 l-100 -100 -145 0 -145 0 100 100 100 100 145
0 145 0 -100 -100z m610 0 l-100 -100 -145 0 -145 0 100 100 100 100 145 0
145 0 -100 -100z m920 0 l-100 -100 -145 0 -145 0 100 100 100 100 145 0 145
0 -100 -100z m-11465 -117 c0 -4 -44 -52 -97 -105 l-98 -98 -145 0 -145 0 105
105 105 105 137 0 c76 0 138 -3 138 -7z m520 -98 l-105 -105 -145 0 -145 0
105 105 105 105 145 0 145 0 -105 -105z m400 102 c0 -2 -46 -50 -102 -105
l-103 -102 -145 0 -145 0 105 105 105 105 142 0 c79 0 143 -2 143 -3z m550
-102 l-105 -105 -157 0 c-87 0 -158 4 -158 8 0 5 44 52 99 105 l98 97 164 0
164 0 -105 -105z m310 0 l-105 -105 -145 0 -145 0 105 105 105 105 145 0 145
0 -105 -105z m610 0 l-105 -105 -145 0 -145 0 105 105 105 105 145 0 145 0
-105 -105z m400 98 c0 -4 -44 -52 -97 -105 l-98 -98 -142 0 c-79 0 -143 3
-143 7 0 4 44 52 97 105 l98 98 142 0 c79 0 143 -3 143 -7z m210 -98 l-105
-105 -145 0 -145 0 105 105 105 105 145 0 145 0 -105 -105z m610 0 l-105 -105
-145 0 -145 0 105 105 105 105 145 0 145 0 -105 -105z m610 0 l-105 -105 -145
0 -145 0 105 105 105 105 145 0 145 0 -105 -105z m400 98 c0 -4 -44 -52 -97
-105 l-98 -98 -145 0 -145 0 105 105 105 105 137 0 c76 0 138 -3 138 -7z
m1130 -98 l-105 -105 -145 0 -145 0 105 105 105 105 145 0 145 0 -105 -105z
m1220 0 l-105 -105 -145 0 -145 0 105 105 105 105 145 0 145 0 -105 -105z
m1220 0 l-105 -105 -145 0 -145 0 105 105 105 105 145 0 145 0 -105 -105z
m710 102 c0 -2 -46 -50 -102 -105 l-103 -102 -145 0 -145 0 105 105 105 105
142 0 c79 0 143 -2 143 -3z m210 -102 l-105 -105 -145 0 -145 0 105 105 105
105 145 0 145 0 -105 -105z m610 0 l-105 -105 -145 0 -145 0 105 105 105 105
145 0 145 0 -105 -105z m400 98 c0 -4 -44 -52 -97 -105 l-98 -98 -142 0 c-79
0 -143 4 -143 8 0 5 44 52 99 105 l98 97 142 0 c77 0 141 -3 141 -7z m210 -98
l-105 -105 -145 0 -145 0 105 105 105 105 145 0 145 0 -105 -105z m610 0
l-105 -105 -145 0 -145 0 105 105 105 105 145 0 145 0 -105 -105z m610 0
l-105 -105 -145 0 -145 0 105 105 105 105 145 0 145 0 -105 -105z m-11859
-219 l-104 -104 -140 -1 c-78 -1 -143 -4 -146 -7 -3 -3 56 -4 132 -2 75 2 137
1 137 -2 0 -2 -44 -49 -97 -102 l-98 -98 -145 0 -145 0 210 210 210 210 145 0
145 0 -104 -104z m299 -1 l-105 -105 -137 0 c-76 0 -138 3 -138 7 0 4 44 52
97 105 l98 98 145 0 145 0 -105 -105z m611 1 l-104 -105 -139 0 c-76 0 -138 3
-138 7 0 4 44 51 97 104 l98 98 145 0 145 0 -104 -104z m544 -106 l-210 -210
-165 0 -165 0 101 101 101 101 161 -1 c88 -1 163 2 165 6 3 4 -64 7 -149 6
-85 -1 -154 1 -154 5 0 4 44 51 97 104 l98 98 165 0 165 0 -210 -210z m725
113 c-52 -54 -99 -101 -105 -105 -13 -10 -285 -10 -285 -1 0 4 44 52 97 105
l98 98 145 0 145 0 -95 -97z m805 -113 l-210 -210 -145 0 -145 0 102 102 101
101 139 -2 c76 -1 135 0 133 3 -3 3 -61 6 -128 7 -67 0 -122 4 -122 7 0 4 44
51 97 104 l98 98 145 0 145 0 -210 -210z m414 105 l-106 -105 -141 0 c-78 0
-142 1 -142 3 0 2 44 48 98 104 l97 100 150 1 150 2 -106 -105z m612 1 l-104
-104 -143 -1 c-79 -1 -144 0 -144 2 0 2 46 50 103 105 l102 102 145 0 145 0
-104 -104z m299 -1 l-105 -105 -137 0 c-76 0 -138 3 -138 7 0 4 44 52 97 105
l98 98 145 0 145 0 -105 -105z m611 1 l-104 -105 -139 0 c-76 0 -138 3 -138 7
0 4 44 51 97 104 l98 98 145 0 145 0 -104 -104z m309 -1 l-105 -105 -145 0
-145 0 105 105 105 105 145 0 145 0 -105 -105z m310 10 c-52 -52 -92 -97 -89
-99 3 -3 50 40 104 94 l100 100 145 0 145 0 -105 -105 -104 -105 -293 0 c-161
0 -293 4 -293 8 0 3 44 51 97 104 l98 98 145 0 145 0 -95 -95z m805 -115
l-210 -210 -145 0 -145 0 102 102 101 101 139 -2 c76 -1 135 0 133 3 -3 3 -61
6 -128 7 -67 0 -122 4 -122 7 0 4 44 51 97 104 l98 98 145 0 145 0 -210 -210z
m414 105 l-106 -105 -141 0 c-78 0 -142 3 -142 6 0 4 44 51 97 105 l97 99 150
0 151 0 -106 -105z m610 0 l-106 -105 -141 0 c-78 0 -142 2 -142 3 0 2 46 50
103 105 l102 102 145 0 145 0 -106 -105z m806 -105 l-210 -210 -145 0 -145 0
102 102 101 101 140 -2 c77 -1 142 1 145 6 3 4 -55 7 -129 6 -74 -1 -134 1
-134 5 0 4 44 51 97 104 l98 98 145 0 145 0 -210 -210z m1025 105 l-105 -105
-145 0 -145 0 105 105 105 105 145 0 145 0 -105 -105z m400 97 c0 -5 -44 -52
-98 -105 l-98 -96 -142 0 c-78 0 -142 3 -142 7 0 4 44 51 97 104 l98 98 142 0
c79 0 143 -4 143 -8z m520 -97 l-106 -104 -142 0 c-78 0 -142 3 -142 7 0 4 44
51 97 104 l98 98 150 0 150 0 -105 -105z m910 0 l-105 -105 -137 0 c-76 0
-138 3 -138 7 0 4 44 52 97 105 l98 98 145 0 145 0 -105 -105z m610 0 l-105
-105 -137 0 c-76 0 -138 3 -138 7 0 4 44 52 97 105 l98 98 145 0 145 0 -105
-105z m-11245 -215 l-100 -100 -145 0 -145 0 100 100 99 99 141 3 c77 2 142 2
144 0 3 -1 -40 -48 -94 -102z m405 104 c0 -1 -46 -47 -102 -102 l-103 -102
-145 0 -145 0 105 103 105 102 143 0 c78 0 142 0 142 -1z m205 -104 l-100
-100 -145 0 -145 0 100 100 99 99 141 3 c77 2 142 2 144 0 3 -1 -40 -48 -94
-102z m1570 0 l-100 -100 -150 0 -150 0 100 100 99 99 146 3 c80 2 147 2 149
0 3 -1 -40 -48 -94 -102z m1315 100 c0 -2 -44 -49 -97 -102 l-98 -98 -145 0
-145 0 103 103 102 102 140 0 c77 0 140 -2 140 -5z m515 -100 l-100 -100 -145
0 -145 0 100 100 99 99 141 3 c77 2 142 2 144 0 3 -1 -40 -48 -94 -102z m302
3 l-102 -103 -145 0 -145 0 102 103 103 102 145 0 145 0 -103 -102z m3058 -3
l-100 -100 -145 0 -145 0 100 100 99 99 141 3 c77 2 142 2 144 0 3 -1 -40 -48
-94 -102z m913 2 l-103 -102 -145 0 -145 0 100 100 99 99 146 3 c80 2 146 3
148 2 1 0 -44 -46 -100 -102z m712 98 c0 -2 -44 -49 -97 -102 l-98 -98 -150 0
-150 0 105 103 105 102 143 0 c78 0 142 -2 142 -5z m610 0 c0 -2 -44 -49 -97
-102 l-98 -98 -150 0 -150 0 105 103 105 102 143 0 c78 0 142 -2 142 -5z m515
-100 l-100 -100 -145 0 -145 0 100 100 99 99 141 3 c77 2 142 2 144 0 3 -1
-40 -48 -94 -102z m610 0 l-100 -100 -145 0 -145 0 100 100 99 99 141 3 c77 2
142 2 144 0 3 -1 -40 -48 -94 -102z m610 0 l-100 -100 -145 0 -145 0 100 100
99 99 141 3 c77 2 142 2 144 0 3 -1 -40 -48 -94 -102z m-9470 0 l-100 -100
-145 0 -145 0 100 100 100 100 145 0 145 0 -100 -100z m1220 0 l-100 -100
-145 0 -145 0 100 100 100 100 145 0 145 0 -100 -100z m3360 0 l-100 -100
-145 0 -145 0 100 100 100 100 145 0 145 0 -100 -100z m2750 0 l-100 -100
-145 0 -145 0 100 100 100 100 145 0 145 0 -100 -100z m-9725 -215 l-105 -105
-137 0 c-76 0 -138 3 -138 7 0 4 44 52 97 105 l98 98 145 0 145 0 -105 -105z
m610 0 l-105 -105 -137 0 c-76 0 -138 3 -138 7 0 4 44 52 97 105 l98 98 145 0
145 0 -105 -105z m310 0 l-105 -105 -145 0 -145 0 105 105 105 105 145 0 145
0 -105 -105z m650 0 l-105 -105 -145 0 -145 0 105 105 105 105 145 0 145 0
-105 -105z m400 102 c0 -2 -46 -50 -102 -105 l-103 -102 -137 0 c-76 0 -138 3
-138 7 0 4 44 52 97 105 l98 98 142 0 c79 0 143 -2 143 -3z m820 -102 l-105
-105 -145 0 -145 0 105 105 105 105 145 0 145 0 -105 -105z m610 0 l-105 -105
-145 0 -145 0 105 105 105 105 145 0 145 0 -105 -105z m310 0 l-105 -105 -145
0 -145 0 105 105 105 105 145 0 145 0 -105 -105z m610 0 l-105 -105 -145 0
-145 0 105 105 105 105 145 0 145 0 -105 -105z m610 0 l-105 -105 -145 0 -145
0 105 105 105 105 145 0 145 0 -105 -105z m300 0 l-105 -105 -137 0 c-76 0
-138 3 -138 7 0 4 44 52 97 105 l98 98 145 0 145 0 -105 -105z m310 0 l-105
-105 -145 0 -145 0 105 105 105 105 145 0 145 0 -105 -105z m400 97 c0 -5 -44
-52 -99 -105 l-98 -97 -142 0 c-77 0 -141 3 -141 7 0 4 44 52 97 105 l98 98
142 0 c79 0 143 -4 143 -8z m210 -97 l-105 -105 -145 0 -145 0 105 105 105
105 145 0 145 0 -105 -105z m400 98 c0 -4 -44 -52 -97 -105 l-98 -98 -142 0
c-79 0 -143 3 -143 7 0 4 44 52 97 105 l98 98 142 0 c79 0 143 -3 143 -7z
m210 -98 l-105 -105 -145 0 -145 0 105 105 105 105 145 0 145 0 -105 -105z
m610 0 l-105 -105 -137 0 c-76 0 -138 3 -138 7 0 4 44 52 97 105 l98 98 145 0
145 0 -105 -105z m310 0 l-105 -105 -145 0 -145 0 105 105 105 105 145 0 145
0 -105 -105z m610 0 l-105 -105 -145 0 -145 0 105 105 105 105 145 0 145 0
-105 -105z m1010 97 c0 -5 -44 -52 -99 -105 l-98 -97 -142 0 c-77 0 -141 3
-141 7 0 4 44 52 97 105 l98 98 142 0 c79 0 143 -4 143 -8z m610 0 c0 -5 -44
-52 -99 -105 l-98 -97 -142 0 c-77 0 -141 3 -141 7 0 4 44 52 97 105 l98 98
142 0 c79 0 143 -4 143 -8z m820 -97 l-105 -105 -145 0 -145 0 105 105 105
105 145 0 145 0 -105 -105z m-10335 -215 l-101 -100 -144 0 -145 0 100 100
100 100 146 0 146 0 -102 -100z m650 0 l-100 -100 -165 0 -165 0 100 100 100
100 165 0 165 0 -100 -100z m920 0 l-100 -100 -145 0 -145 0 100 100 100 100
145 0 145 0 -100 -100z m310 0 l-100 -100 -150 0 -150 0 100 100 100 100 150
0 150 0 -100 -100z m1220 0 l-100 -100 -145 0 -145 0 100 100 100 100 145 0
145 0 -100 -100z m300 0 l-100 -100 -145 0 -145 0 100 100 100 100 145 0 145
0 -100 -100z m610 0 l-100 -100 -145 0 -145 0 100 100 100 100 145 0 145 0
-100 -100z m610 0 l-101 -100 -144 0 -145 0 100 100 100 100 146 0 146 0 -102
-100z m620 0 l-100 -100 -150 0 -150 0 100 100 100 100 150 0 150 0 -100 -100z
m300 0 l-100 -100 -145 0 -145 0 100 100 100 100 145 0 145 0 -100 -100z m920
0 l-100 -100 -146 0 -146 0 101 100 101 100 145 0 145 0 -100 -100z m300 0
l-100 -100 -145 0 -145 0 100 100 100 100 145 0 145 0 -100 -100z m610 0
l-100 -100 -145 0 -145 0 100 100 100 100 145 0 145 0 -100 -100z m610 0
l-100 -100 -145 0 -145 0 100 100 100 100 145 0 145 0 -100 -100z m620 0
l-100 -100 -150 0 -150 0 100 100 100 100 150 0 150 0 -100 -100z m300 0
l-100 -100 -145 0 -145 0 100 100 100 100 145 0 145 0 -100 -100z m610 0
l-100 -100 -145 0 -145 0 100 100 100 100 145 0 145 0 -100 -100z m310 0
l-100 -100 -145 0 -146 0 95 98 96 99 150 1 150 2 -100 -100z m610 0 l-100
-100 -145 0 -145 0 100 100 100 100 145 0 145 0 -100 -100z m610 0 l-100 -100
-145 0 -145 0 100 100 100 100 145 0 145 0 -100 -100z m610 0 l-100 -100 -145
0 -145 0 100 100 100 100 145 0 145 0 -100 -100z m-12165 -215 l-105 -105
-145 0 -145 0 105 105 105 105 145 0 145 0 -105 -105z m400 102 c0 -2 -46 -50
-102 -105 l-103 -102 -145 0 -145 0 105 105 105 105 142 0 c79 0 143 -2 143
-3z m210 -102 l-105 -105 -145 0 -145 0 105 105 105 105 145 0 145 0 -105
-105z m650 0 l-105 -105 -145 0 -145 0 105 105 105 105 145 0 145 0 -105 -105z
m610 0 l-105 -105 -145 0 -145 0 105 105 105 105 145 0 145 0 -105 -105z m610
0 l-105 -105 -145 0 -145 0 105 105 105 105 145 0 145 0 -105 -105z m400 98
c0 -4 -44 -52 -97 -105 l-98 -98 -142 0 c-79 0 -143 4 -143 8 0 5 44 52 99
105 l98 97 142 0 c77 0 141 -3 141 -7z m210 -98 l-105 -105 -145 0 -145 0 105
105 105 105 145 0 145 0 -105 -105z m610 0 l-105 -105 -145 0 -145 0 105 105
105 105 145 0 145 0 -105 -105z m610 0 l-105 -105 -145 0 -145 0 105 105 105
105 145 0 145 0 -105 -105z m920 0 l-105 -105 -145 0 -145 0 105 105 105 105
145 0 145 0 -105 -105z m400 97 c0 -5 -44 -52 -99 -105 l-98 -97 -142 0 c-77
0 -141 3 -141 7 0 4 44 52 97 105 l98 98 142 0 c79 0 143 -4 143 -8z m610 1
c0 -4 -44 -52 -97 -105 l-98 -98 -142 0 c-79 0 -143 4 -143 8 0 5 44 52 99
105 l98 97 142 0 c77 0 141 -3 141 -7z m610 0 c0 -4 -44 -52 -97 -105 l-98
-98 -142 0 c-79 0 -143 2 -143 3 0 2 46 50 103 105 l102 102 138 0 c75 0 137
-3 137 -7z m820 -98 l-105 -105 -145 0 -145 0 105 105 105 105 145 0 145 0
-105 -105z m400 98 c0 -4 -44 -52 -97 -105 l-98 -98 -145 0 -145 0 105 105
105 105 137 0 c76 0 138 -3 138 -7z m2140 -1 c0 -3 -44 -51 -97 -104 l-98 -98
-142 0 c-79 0 -143 2 -143 4 0 2 41 43 90 92 50 48 90 92 90 98 0 6 -46 -35
-103 -92 l-102 -102 -145 0 -145 0 105 105 104 105 293 0 c161 0 293 -4 293
-8z m820 -97 l-105 -105 -145 0 -145 0 105 105 105 105 145 0 145 0 -105 -105z
m920 0 l-105 -105 -145 0 -145 0 105 105 105 105 145 0 145 0 -105 -105z
m-11215 -215 l-100 -100 -165 0 -165 0 100 100 100 100 165 0 165 0 -100 -100z
m610 0 l-100 -100 -145 0 -145 0 100 100 100 100 145 0 145 0 -100 -100z m918
-2 l-103 -103 -142 3 -142 3 100 100 99 99 145 0 145 0 -102 -102z m922 2
l-100 -100 -146 0 -146 0 101 100 101 100 145 0 145 0 -100 -100z m605 -3
l-105 -102 -139 3 -140 3 100 100 99 99 145 0 145 0 -105 -103z m615 3 l-100
-100 -145 0 -145 0 100 100 100 100 145 0 145 0 -100 -100z m1218 -2 l-103
-103 -142 3 -142 3 100 100 99 99 145 0 145 0 -102 -102z m610 0 l-103 -103
-142 3 -142 3 100 100 99 99 145 0 145 0 -102 -102z m612 2 l-100 -100 -145 0
-145 0 100 100 100 100 145 0 145 0 -100 -100z m309 -1 l-101 -101 -139 -1
-139 -1 128 -3 c70 -2 127 -7 127 -11 0 -3 -44 -51 -97 -104 l-98 -98 -145 0
-145 0 210 210 210 210 145 0 145 0 -101 -101z m911 1 l-100 -100 -145 0 -145
0 100 100 100 100 145 0 145 0 -100 -100z m310 0 l-100 -100 -145 0 -145 0
100 100 100 100 145 0 145 0 -100 -100z m1220 0 l-100 -100 -145 0 -145 0 100
100 100 100 145 0 145 0 -100 -100z m915 -3 l-105 -102 -139 3 -140 3 100 100
99 99 145 0 145 0 -105 -103z m1225 3 l-100 -100 -145 0 -145 0 100 100 100
100 145 0 145 0 -100 -100z m-11465 -117 c0 -4 -44 -52 -97 -105 l-98 -98
-145 0 -145 0 105 105 105 105 137 0 c76 0 138 -3 138 -7z m650 0 c0 -4 -44
-52 -97 -105 l-98 -98 -145 0 -145 0 105 105 105 105 137 0 c76 0 138 -3 138
-7z m610 0 c0 -4 -44 -52 -97 -105 l-98 -98 -145 0 -145 0 105 105 105 105
137 0 c76 0 138 -3 138 -7z m610 0 c0 -4 -44 -52 -97 -105 l-98 -98 -145 0
-145 0 105 105 105 105 137 0 c76 0 138 -3 138 -7z m310 0 c0 -4 -44 -52 -97
-105 l-98 -98 -142 0 c-79 0 -143 4 -143 8 0 5 44 52 99 105 l98 97 142 0 c77
0 141 -3 141 -7z m300 0 c0 -4 -44 -52 -97 -105 l-98 -98 -145 0 -145 0 105
105 105 105 137 0 c76 0 138 -3 138 -7z m520 -98 l-105 -105 -145 0 -145 0
105 105 105 105 145 0 145 0 -105 -105z m400 98 c0 -4 -44 -52 -97 -105 l-98
-98 -145 0 -145 0 105 105 105 105 137 0 c76 0 138 -3 138 -7z m210 -98 l-105
-105 -145 0 -145 0 105 105 105 105 145 0 145 0 -105 -105z m710 102 c0 -2
-46 -50 -102 -105 l-103 -102 -145 0 -145 0 106 105 106 105 141 0 c78 0 142
-2 142 -3z m910 -4 c0 -4 -44 -52 -97 -105 l-98 -98 -145 0 -145 0 105 105
105 105 137 0 c76 0 138 -3 138 -7z m920 -1 c0 -3 -44 -51 -97 -104 l-98 -98
-145 0 -145 0 95 95 c52 52 92 97 89 99 -3 3 -50 -40 -104 -94 l-100 -100
-145 0 -145 0 105 105 104 105 293 0 c161 0 293 -4 293 -8z m2140 4 c0 -2 -40
-43 -90 -92 -49 -48 -90 -92 -90 -98 0 -6 46 35 103 92 l102 102 138 0 c75 0
137 -3 137 -8 0 -4 -44 -51 -98 -105 l-97 -97 -300 0 -300 0 106 105 106 105
141 0 c78 0 142 -2 142 -4z m610 -3 c0 -4 -44 -52 -97 -105 l-98 -98 -150 0
-150 0 106 105 106 105 141 0 c78 0 142 -3 142 -7z m820 -98 l-105 -105 -145
0 -145 0 105 105 105 105 145 0 145 0 -105 -105z m400 98 c0 -4 -44 -52 -97
-105 l-98 -98 -145 0 -145 0 105 105 105 105 137 0 c76 0 138 -3 138 -7z m820
-98 l-105 -105 -145 0 -145 0 106 105 106 105 144 0 144 0 -105 -105z m-10910
-220 l-105 -105 -157 0 c-87 0 -158 3 -158 7 0 4 44 52 97 105 l98 98 165 0
165 0 -105 -105z m310 0 l-105 -105 -145 0 -145 0 105 105 105 105 145 0 145
0 -105 -105z m300 0 l-105 -105 -137 0 c-76 0 -138 3 -138 7 0 4 44 52 97 105
l98 98 145 0 145 0 -105 -105z m310 0 l-105 -105 -145 0 -145 0 105 105 105
105 145 0 145 0 -105 -105z m400 97 c0 -5 -44 -52 -99 -105 l-98 -97 -142 0
c-77 0 -141 3 -141 7 0 4 44 52 97 105 l98 98 142 0 c79 0 143 -4 143 -8z
m210 -97 l-105 -105 -145 0 -145 0 105 105 105 105 145 0 145 0 -105 -105z
m610 0 l-105 -105 -137 0 c-76 0 -138 3 -138 7 0 4 44 52 97 105 l98 98 145 0
145 0 -105 -105z m310 0 l-105 -105 -142 0 c-79 0 -143 2 -143 3 0 2 46 50
103 105 l102 102 145 0 145 0 -105 -105z m300 0 l-105 -105 -137 0 c-76 0
-138 3 -138 7 0 4 44 52 97 105 l98 98 145 0 145 0 -105 -105z m920 0 l-105
-105 -145 0 -145 0 105 105 105 105 145 0 145 0 -105 -105z m610 0 l-105 -105
-145 0 -145 0 105 105 105 105 145 0 145 0 -105 -105z m400 97 c0 -5 -44 -52
-99 -105 l-98 -97 -142 0 c-77 0 -141 3 -141 7 0 4 44 52 97 105 l98 98 142 0
c79 0 143 -4 143 -8z m610 1 c0 -4 -44 -52 -97 -105 l-98 -98 -142 0 c-79 0
-143 3 -143 7 0 4 44 52 97 105 l98 98 142 0 c79 0 143 -3 143 -7z m210 -98
l-105 -105 -145 0 -145 0 105 105 105 105 145 0 145 0 -105 -105z m610 0
l-105 -105 -137 0 c-76 0 -138 3 -138 7 0 4 44 52 97 105 l98 98 145 0 145 0
-105 -105z m610 0 l-105 -105 -137 0 c-76 0 -138 3 -138 7 0 4 44 52 97 105
l98 98 145 0 145 0 -105 -105z m610 0 l-105 -105 -137 0 c-76 0 -138 3 -138 7
0 4 44 52 97 105 l98 98 145 0 145 0 -105 -105z m310 0 l-105 -105 -145 0
-145 0 105 105 105 105 145 0 145 0 -105 -105z m400 102 c0 -2 -46 -50 -102
-105 l-103 -102 -137 0 c-76 0 -138 3 -138 7 0 4 44 52 97 105 l98 98 142 0
c79 0 143 -2 143 -3z m610 -5 c0 -5 -44 -52 -99 -105 l-98 -97 -142 0 c-77 0
-141 3 -141 7 0 4 44 52 97 105 l98 98 142 0 c79 0 143 -4 143 -8z m820 -97
l-105 -105 -137 0 c-76 0 -138 3 -138 7 0 4 44 52 97 105 l98 98 145 0 145 0
-105 -105z m610 0 l-105 -105 -137 0 c-76 0 -138 3 -138 7 0 4 44 52 97 105
l98 98 145 0 145 0 -105 -105z"/>
<path d="M3103 5343 c37 -2 97 -2 135 0 37 2 6 3 -68 3 -74 0 -105 -1 -67 -3z"/>
<path d="M7113 5343 c37 -2 97 -2 135 0 37 2 6 3 -68 3 -74 0 -105 -1 -67 -3z"/>
<path d="M803 2743 c37 -2 97 -2 135 0 37 2 6 3 -68 3 -74 0 -105 -1 -67 -3z"/>
<path d="M5423 2743 c37 -2 97 -2 135 0 37 2 6 3 -68 3 -74 0 -105 -1 -67 -3z"/>
<path d="M8783 2743 c37 -2 97 -2 135 0 37 2 6 3 -68 3 -74 0 -105 -1 -67 -3z"/>
</g>
</svg>
